<?xml version="1.0" standalone="no"?>
<!DOCTYPE svg PUBLIC "-//W3C//DTD SVG 1.1//EN" "http://www.w3.org/Graphics/SVG/1.1/DTD/svg11.dtd" >
<svg>
<metadata>
Created by FontForge 20090914 at Fri Feb 24 14:52:15 2012
 By root
Yumi Manabe
</metadata>
<defs>
<font id="PeacerfulDay" horiz-adv-x="512" >
  <font-face 
    font-family="PeacerfulDay"
    font-weight="400"
    font-stretch="normal"
    units-per-em="1024"
    panose-1="2 11 6 0 0 0 0 0 0 0"
    ascent="819"
    descent="-205"
    x-height="370"
    cap-height="875"
    bbox="-2.16667 -190 1115 881.391"
    underline-thickness="48"
    underline-position="-72"
    unicode-range="U+0020-U+2219"
  />
<missing-glyph 
d="M206 400v100h100v-100h-100z" />
    <glyph glyph-name=".notdef" 
d="M206 400v100h100v-100h-100z" />
    <glyph glyph-name="NULL" horiz-adv-x="0" 
 />
    <glyph glyph-name="space" unicode=" " 
 />
    <glyph glyph-name="exclam" unicode="!" 
d="M112 880q18 -3 31 -17q14 -6 30 -5l26 -30q9 -36 -6 -327t-24 -330q-13 -11 -31 -8q-28 -9 -43 21q-23 30 -25 116.5t16 562.5q15 6 26 17zM82 81q82 -7 97 -59.5t0 -92t-28 -56.5q-20 -8 -39 -17q-20 -1 -39 4q-27 27 -51 56q-19 64 26 134q15 17 34 31z" />
    <glyph glyph-name="quotedbl" unicode="&#x22;" 
d="M266 589q4 21 22.5 31.5t32.5 24.5q9 25 22 48q-3 9 -10.5 6t-13.5 0q-44 25 -48 55q0 28 10 43.5t9 23.5q14 21 40 28q44 -5 54.5 -34t18.5 -48q0 -18 -6.5 -34l-12.5 -32q-3 -9 -2 -19q-5 -6 -11 -9q-4 -7 -4 -15q-10 -9 -20 -17q1 -4 -2 -7q-5 -5 -11 -8q-5 -6 -7 -14
q-4 0 -8 -2q-24 -16 -53 -21zM106 589l55 56q31 45 9 65q-22 -14 -45.5 24t3.5 72q3 7 2 15q14 21 40 28q42 -7 53.5 -35l19.5 -47q0 -18 -6.5 -34l-12.5 -32q-3 -9 -2 -19q-5 -6 -11 -9q-4 -7 -4 -15q-10 -9 -20 -17q1 -4 -2 -7q-5 -5 -11 -8q-5 -6 -7 -14q-4 0 -8 -2
q-24 -16 -53 -21z" />
    <glyph glyph-name="numbersign" unicode="#" horiz-adv-x="877" 
d="M260 480q-35 -8 -100 -10q-43 -20 -128 6q1 9 -5 16q-29 9 -27 38q7 6 16 5q49 23 237 43q18 43 20.5 117.5t17.5 173.5q12 8 27 6q13 -13 32 -17q21 -28 38 -59q-5 -103 -16 -205q18 -7 38 -5q141 17 172 32q10 128 38 254q7 0 11 5q50 -11 75 -54q13 -44 -0.5 -88.5
t-15.5 -89.5q12 -15 32 -11q21 8 43 0q29 -23 38 -59q-53 -15 -108 -21q-19 -32 -16 -70q-27 -76 -21 -157q6 -1 10 -5q38 8 80 5.5t66 -37.5q10 -12 11 -27q-13 -15 -33 -11l-97 -11l-48 -16q-22 -137 -38 -275q-2 -62 -48 -97l-54 32q-2 41 10 81l27 232q-9 8 -21 5
q-166 -45 -183 -75q-24 -87 -27 -178q-6 -22 -3 -47.5t-19 -38.5q-12 -9 -27 -6q-33 19 -54 49q-17 25 -11 54q16 11 27 27q2 62 11 124q-27 7 -67 -5q-70 -36 -138 32q-7 15 -5 32q91 48 213 56l3 41zM571 530q-108 -2 -210 -38l-21 -232q31 8 53 11q85 14 162 48z" />
    <glyph glyph-name="dollar" unicode="$" horiz-adv-x="570" 
d="M529 605q-28 2 -55 13q-93 41 -135 29q-9 2 -9 -8q-12 -37 -4 -76q-1 -22 4 -43q5 -99 4 -199h5q27 4 64 -4t83.5 -41.5t50.5 -71t-8 -52.5q-54 -62 -131 -93l-38 -4q-25 -12 -47 -30q-6 -30 -17 -59v-106q-12 -5 -25 -4l-34 4q-52 19 -38 76q-10 14 0 30q-7 37 -26 13
l-76 -55q-25 6 -46 21h-30q-11 10 -21 21q5 6 4 13l100 46.5t91 50.5q25 96 29 195q-12 7 -21 17q-10 3 -21 4q-103 20 -128 52.5t-33 82.5q-9 67 15.5 127t115.5 110q31 12 55 34v21q-17 70 -4 144q12 7 21 17q68 -5 98 -63q6 -25 -2.5 -51.5t10.5 -46.5q28 -10 59 -8
q43 -14 84.5 -37t55.5 -69zM228 338q2 50 -4 136l-4 126q-16 -11 -30 -4v-4q-9 0 -8 -8q-32 -9 -54.5 -40.5t-26 -63t21.5 -104.5q49 -31 105 -38zM320 260q-6 -101 -7 -125q13 -3 26 -4q13 6 29 4q-2 7 4 9q60 25 64 89q-47 27 -116 27z" />
    <glyph glyph-name="uni0025" unicode="%" horiz-adv-x="931" 
d="M609 880q36 -2 69 -14q7 -23 0 -46q-13 -31 -47 -130t-45 -114q-30 -92 -32 -130q-10 -3 -14 -13v-37q-8 -16 -14 -33h4l5 5q22 53 55 101q24 14 42.5 28t75 39.5t120 -16.5t71.5 -110q17 -57 0 -148q-6 -17 -22.5 -51.5t-23.5 -36.5l-27 -32q-5 -27 -28 -37
q-25 -14 -51 -21.5t-50 -19.5q-60 -3 -90 12.5t-60.5 71t-25.5 123.5q-1 14 5 28q-3 21 -5 41h-4v-4q-37 -60 -42 -134l-64 -203q-2 -28 -5 -55l-14 -23q-2 -24 -7 -47.5t-39 -17.5q-30 11 -46 37q-1 71 42 198t45 148l97 346q44 127 56 143q10 37 17 77t38 66q9 2 14 9z
M217 719q68 -2 129 -28q7 -10 5 -23q19 -6 36 -14v-18h10q17 -43 23 -88q-14 -63 -5 -102q-7 -7 -14 -13q-2 -25 -14 -47q-8 -8 -18 -13q-2 -15 -9 -28q-14 -10 -28 -19q-56 -59 -134 -73q-81 19 -110 44t-42 48q-49 148 28 286q26 29 55 55q44 15 88 33zM231 668
q-17 -12 -37 -19q-23 -23 -42 -50q-13 -5 -23 -14q-22 -70 -23 -143q14 -31 32 -60l10 -32q62 -29 94 -20.5t63.5 42t35.5 148.5q8 82 -50 139q-29 12 -60 9zM775 474q-18 -3 -37 -5q-23 -8 -41 -23h-14q-33 -30 -56 -69q-31 -42 -27.5 -89.5t29.5 -104t95.5 -33t87 64
t22 108t-17.5 123.5q-18 18 -41 28z" />
    <glyph glyph-name="ampersand" unicode="&#x26;" horiz-adv-x="785" 
d="M37 688q20 32 69 84.5t136.5 76t140 25t86 -36.5t59.5 -94q-3 -49 -12 -99t-53.5 -106t-77.5 -103t-31 -107l74 -38q40 -51 132 -100q68 62 63 90.5t21 43t57 4.5q23 -27 31 -56q-17 -45 -51.5 -80t-47.5 -82l56 -55q70 -31 74 -106q-27 -8 -56 -6q-48 11 -173 93
q-25 -25 -56 -43q-17 -35 -67.5 -61t-75.5 -33q-61 -23 -97.5 -19t-79.5 14t-71 49q-40 71 -37 103.5t5 72.5t15 74t42 60l98 87q-27 28 -30 37q-30 19 -56 44q-39 36 -68 74q-65 84 -19 193zM348 781q-100 -19 -156 -68.5t-68.5 -101.5t13.5 -85q55 -56 113 -106
q7 20 73.5 90.5t89 140t-21.5 130.5h-43zM300 260q-25 -12 -87 -87t-34 -137t51 -62q40 1 138 36.5t85 130.5q-52 38 -99 81q-25 4 -44 44z" />
    <glyph glyph-name="quotesingle" unicode="'" 
d="M70 881q43 1 85 -35l6 -18q6 -3 11 -6q1 -7 3 -15q6 -8 12 -17h6q-1 -9 3 -18l12 -26v-15q-2 -32 -9 -67q-22 -54 -64 -94h-9q-8 -8 -15 -18h-9q-2 -6 -9 -9q-14 -2 -29 0q-2 -6 -9 -8q-8 0 -15 5q-5 -7 -14 -8q-10 9 -23 14q-2 10 -3 21q5 3 11 3q1 -6 6 -6q39 18 62 56
q9 7 21 11l2 12q22 26 21 59q-6 4 -12 9q-12 -9 -23 -2.5t-21 13.5q-10 4 -20 6q-13 16 -24 32q-1 19 -4.5 37.5t1.5 36.5q12 18 27 35q13 3 23 12z" />
    <glyph glyph-name="parenleft" unicode="(" horiz-adv-x="342" 
d="M161 880q17 -5 35 -4q46 -20 51 -67q-57 -77 -78 -172l-32 -47q-6 -20 -7 -40q-4 -4 -8 -7q6 -12 4 -24l-24 -98q6 -13 8 -27v-52q-6 -47 -4 -94q18 -50 31 -102v-23l12 -16v-20q6 -5 12 -11q1 -22 8 -43q9 -18 19 -36q9 -14 12 -31q54 -42 59 -106h-8q-9 -5 -19 -4
q-12 10 -28 12q-29 36 -55 74l-8 24q-8 6 -15 12l-4 27l-20 20v19l-12 16v16q-4 6 -11 8q-13 20 -20 43q-56 173 -27 353v43q5 26 11 51v24q6 7 12 15l12 43l12 8q-5 11 -4 24q4 15 15 27v28q2 16 8 31l20 20q7 10 8 23q15 33 35 63z" />
    <glyph glyph-name="parenright" unicode=")" horiz-adv-x="327" 
d="M106 856h16q16 -33 36 -63q13 -8 23 -19q3 -25 12 -48q2 -5 8 -7v-20q7 -4 12 -12v-28q15 -26 23 -55q1 -41 0 -82q13 -219 -15.5 -317.5t-27.5 -112.5q-4 -8 -8 -15v-20q-12 -10 -16 -24v-12q-7 -8 -15 -15q6 -9 4 -20q-10 -9 -16 -20q-3 -9 -4 -19q-7 -7 -16 -12
q0 -10 -4 -20q-12 -15 -27 -27q-3 -11 0 -24q-34 -6 -67 0l-4 27q9 57 47 103q64 150 95 311v114q-3 8 -4 16q4 46 -4 91q6 21 4 43l-20 67v31q-9 19 -20 36q-1 24 -8 47q-38 39 -47 91q4 15 12 27q24 15 31 -12z" />
    <glyph glyph-name="asterisk" unicode="*" horiz-adv-x="361" 
d="M107 880q16 -3 25.5 -15.5t19.5 -23.5q-3 -17 -7 -33q0 -20 5 -40h12q18 22 45 35q3 13 14 12q17 -7 29 -21v-14l-22 -32q-13 -11 -27.5 -21t-19.5 -26q10 -5 16 -15q6 1 12 -2q5 -6 31 -17.5t33.5 -20t12.5 -21.5t7 -24q-3 -4 -5 -8q-6 -3 -12 -2q-17 23 -42 34.5
t-49 25.5q-6 6 -11.5 14t-14.5 7q-4 -22 3 -45q-3 -4 -5 -7q-4 -6 2 -10q-3 -13 -2 -26q3 -13 5 -26q-5 -5 -10 -8q-6 -2 -12 -2q-19 13 -33 31q-1 19 3 71q-19 -67 -48 -78q-26 16 -29 45q5 14 12 27q6 4 12 9q5 12 9 24q9 8 19 16t10 22q-20 12 -38 27t-34 32t-23 39h4
q5 3 10 2q13 -11 29 -19q14 -11 25.5 -25.5t28.5 -22.5q1 5 5 8q7 17 2 35q-4 44 3 89z" />
    <glyph glyph-name="plus" unicode="+" 
d="M239 500v24q-1 20 -4 38.5t-2.5 39t21.5 28.5q2 -2 3 -4q15 -26 24 -54v-27q2 -21 6 -42l151 12q13 9 29 9q17 -23 16 -51q-50 -23 -143 -33l-41 -6q-6 -16 -3 -34q4 -22 9 -220q-10 -9 -24 -9q-14 20 -24 42q2 10 -9 215q-9 4 -18 6q-22 -6 -45 -6l-64.5 -16t-65.5 -3
q-13 26 -17 55q46 21 98 25.5t103 10.5z" />
    <glyph glyph-name="comma" unicode="," 
d="M355 267q46 1 64.5 -18.5t22.5 -29.5l12 -6q1 -8 4 -16l12 -20h7q-1 -10 3 -19q7 -14 13 -29q10 -61 3 -99q-24 -58 -71 -102h-9q-9 -9 -16 -19h-10q-3 -7 -10 -10q-16 -2 -32 0q-3 -7 -10 -9q-9 0 -16 6q-6 -8 -16 -10q-11 11 -25 17q-2 11 -3 22q5 4 12 3q2 -6 7 -6
q42 20 79.5 66.5t35.5 82.5l-12 10q-14 -9 -26 -2t-23 15l-22 6q-14 17 -26 35q-1 20 -5 40.5t2 39.5q13 20 29 39q15 3 26 13z" />
    <glyph glyph-name="hyphen" unicode="-" horiz-adv-x="561" 
d="M377 414q8 -1 15 -7q20 7 41 7q11 -2 21 -3q12 7 26 3q19 -7 38 -7q3 -6 7 -13t3 -16q-5 -12 -18 -13.5t-24 -1.5q-11 -3 -23 -1.5t-24 -0.5q-18 -4 -36 -3t-35 -3q-22 -3 -44 -9h-24l-88 -20q-19 -3 -39 -3q-32 -8 -64 -17h-24q-8 -4 -17 -7t-18 -2q-10 2 -18 9l-2 6v5
q5 5 10 9q7 8 8 19t10 16q20 9 41 15h30q17 2 33 8q13 -4 26 -3l89 18q27 6 56 6l22.5 2t21.5 7z" />
    <glyph glyph-name="period" unicode="." 
d="M110 73q45 -7 72 -44q6 -3 13 -8q13 -72 -33 -123q-13 -11 -27 -17.5t-66 7.5q-69 68 -43 116t84 69z" />
    <glyph glyph-name="slash" unicode="/" 
d="M267 880q34 -26 56 -65q4 -82 -35 -154l-4 -39q-7 -4 -13 -9l-43 -150l-4 -35q-7 -6 -13 -13q-1 -32 -9 -64q-63 -219 -86 -344q-4 -2 -8 -5q-2 -28 -5 -56q-8 -5 -17 -4q12 -1 13 -13q-4 -53 -47 -73q-10 5 -22 4q-11 23 -30 39q5 48 30 90q23 138 30 185l121 439v30
l43 129v22q8 50 43 86z" />
    <glyph glyph-name="zero" unicode="0" horiz-adv-x="568" 
d="M254 728q78 -8 147 -45v-8q10 -7 21 -12v-8q10 -9 24 -13l37 -49l4 -28q5 -8 13 -13v-37q9 -21 20 -41q4 -152 -12 -199.5t-19 -64t-22 -35.5q-13 -9 -22.5 -34.5t-51.5 -51.5l-8 -12q-16 -9 -33 -16q-9 -19 -24 -33q-101 -22 -193 29q-24 9 -37 32q-1 9 -4 17
q-20 17 -37 37l-4 28q-7 8 -16 13q-1 37 -8 73q-29 146 4 245t75.5 164t145.5 62zM279 667q-21 -10 -46 -8q-27 -18 -49 -41l-12 -45q-9 -19 -20 -37q1 -23 -5 -45l-12 -12v-17l-16 -49q-1 -39 4 -78q-7 -20 -12 -41q7 -3 12 -8v-33l8 -8v-29q13 -55 37 -106q21 -14 41 -29
q70 -2 119 45q-1 9 4 17q10 6 16 16v8h8q18 13 29 33l12 37q17 18 25 41q-1 64 4 127q5 83 -22.5 168t-124.5 94z" />
    <glyph glyph-name="one" unicode="1" 
d="M250 733h17q24 -22 45 -46l24 -114q9 -55 17 -111q23 -390 20 -434q-17 -9 -37 -8q-28 6 -48 23.5t-13 50.5q-5 47 -4 94q-11 23 -8 49q6 14 4 29q1 47 -4 94q-7 99 -21 196l-4 -4q-35 -24 -49 -65l-21 -17l-24 -57q-13 -20 -29 -37q-10 -35 -45 -33q-42 15 -45 58
q16 16 25 37l49 69q82 119 90 123q5 14 8 29q14 3 25 12v33z" />
    <glyph glyph-name="two" unicode="2" horiz-adv-x="592" 
d="M331 712q47 5 82 -25q48 -87 17 -184q-5 -18 -4 -37q-4 -4 -9 -4v-12q-7 -11 -16 -21v-12l-29 -65q-65 -129 -106.5 -167.5t-40.5 -49.5q-14 -13 -29 -25h-4v-4h4q35 -32 283 61q39 17 60.5 -10.5t0.5 -38.5q-198 -79 -233 -86q-116 -55 -207 -12q-10 33 -10 60l53 46
q72 105 74 115l12 8v13q7 2 12 8v8q9 10 17 20q6 19 23 44.5t38 62.5q23 39 44.5 98t16 90t-26 43t-50.5 2q-46 4 -127 -49q-7 -11 -17 -20q-24 -11 -45 -25q-7 -26 -8 -53q-13 -9 -29 -8q-37 20 -53 57q5 29 29 49q-1 9 4 17q6 7 16 8q6 7 8 16h13l24 21q19 1 37 8
q23 18 49 28h21q7 12 20 17q44 1 86 8z" />
    <glyph glyph-name="three" unicode="3" horiz-adv-x="536" 
d="M210 641q-87 6 -95 -3q-14 -18 -21 -20q-9 -48 -57 -53q-21 23 -25 53q5 45 49 69q13 12 29 21q102 42 209 16q47 -16 90 -41q58 -78 37 -172q-34 -38 -49 -86q49 -24 78 -69v-17l16 -12q18 -18 29 -41v-45q-2 -71 -43 -117t-88.5 -93t-98.5 -73q-11 -11 -24 -16
q-39 -3 -78 4q-16 11 -21 29q24 12 46 28l106 74q4 8 30.5 27t43.5 35q5 13 12 24l21 12l16 37q1 7 8 9v20q16 39 -12.5 69.5t-65.5 37.5q-24 -7 -49 0q-6 -7 -12 -13h-33q-45 -35 -98 -53q-10 9 -25 12l-20 29v25q25 34 82.5 62t89.5 56q15 10 32 17l5 24q36 39 41 90
q-65 51 -155 44z" />
    <glyph glyph-name="four" unicode="4" horiz-adv-x="592" 
d="M62 840q22 -24 29 -57q7 -12 12 -25q2 -52 -12 -102v-58q-9 -55 0 -110v-21q-4 -51 4 -102q9 -5 20 -4q22 5 46 4q65 19 122 53q12 44 5 90l-13 168q-13 38 -12 78q16 32 49 37q12 -14 21 -29q5 -16 24 -188q-1 -9 4 -17v-94q9 -9 21 -16q14 2 24 12l74 12q30 21 66 21
q23 -29 20 -66l-12 -4l-21 -4l-12 -12q-15 -2 -29 4q-2 -8 -8 -12q-55 -17 -102 -46q-20 -19 -12 -169t4 -240q-12 -6 -25 -8q-33 15 -41 49h4v4q2 16 -12 29q1 245 -12 290q-10 6 -21 5q-133 -43 -164 -50q-31 -3 -50.5 31t-27.5 55q2 22 -4 122.5t0 156.5q-16 115 41 213z
" />
    <glyph glyph-name="five" unicode="5" 
d="M436 760l-7 -23q-20 -2 -37 -13q-21 6 -172 -28q-4 -8 -12 -13q-15 -1 -29 4q-5 -9 -49 -27l-4 -177q36 11 70 28q33 0 65 -8q11 -14 25 -24q45 -80 44 -101q10 -9 8.5 -31.5t-8 -72t-36.5 -103.5q-69 -85 -101.5 -116t-78.5 -27q-14 -13 -33 -12q-10 5 -20 8
q-18 14 -17 37l12 41h9q7 5 16 4v12h12q-8 -20 -8 -41q9 -6 21 -4q25 -1 55.5 23.5t58.5 83.5q23 47 32 75.5t13 42.5q-2 35 0 54q-7 22 -8 45q-30 25 -69 20q-13 -19 -33 -29h-17q-8 -15 -24 -20q-10 5 -21 4l-32 29l-9 344q2 11 -4 20q13 23 33 41q4 -3 8 -4
q15 -16 29 -33q39 -1 78 13q56 6 126 20t114 -42z" />
    <glyph glyph-name="six" unicode="6" 
d="M238 754h24q18 -19 17 -45q-34 -37 -62 -78v-20q-4 -10 -12 -17v-16l-8 -8h-8v-13q-4 -9 -13 -12q-1 -27 -8 -53q-48 -97 -53 -205h8q72 121 205 168q86 14 131 -61l8 -70q2 -22 1.5 -60.5t-21.5 -82.5q-20 -31 -49 -54q-60 -69 -144 -102q-57 -10 -110 12q-14 8 -29 8
q-5 -17 -4 -36q-11 -18 -33 -13q-14 19 -37 25q-7 72 4 143q-3 11 -8 21q5 14 4 28q-9 60 0 119q28 104 29 119q6 5 9.5 15.5t8.5 23.5t16 51.5t23 56.5q5 21 13 41q7 2 12 8q-1 13 4 25l12 4q8 22 21 41zM348 398q-32 -12 -65 -21l-12 -16q-14 -7 -29 -19t-31 -34l-35 -46
q-4 -10 -4 -20q-33 -42 -41 -94q13 -18 25 -37q16 -8 29 -21q127 -5 188.5 97t-4.5 211h-21z" />
    <glyph glyph-name="seven" unicode="7" 
d="M354 676q-83 13 -159 -24q-67 -7 -73 -70q5 -197 12 -204q3 -37 -8 -73q-7 -8 -17 -12q-7 0 -12 -5q-16 15 -37 25v28q-6 11 -7.5 61.5t-0.5 208.5q3 28 0 57q1 53 33 94q9 -1 16 4q11 8 25 8q17 -29 28 -61q6 -2 13 -4q20 21 49 20q8 -5 16 -4q27 14 56.5 20.5t71.5 9.5
q17 -1 33 4q10 -15 28 -20q6 -23 15 -43q10 -55 8 -110l-16 -57l4 -37q-35 -159 -49 -322q0 -19 4 -37q-18 -64 -12 -130q1 -45 8 -90q-33 -48 -78 -16q-8 24 -8 49q5 20 8 41q0 13 -12 20q5 38 4 77q5 20 8 41q39 368 45 384l4 57v110z" />
    <glyph glyph-name="eight" unicode="8" 
d="M306 380q14 -5 29 -4q7 -15 16 -29h8l21 -44h4v-21l16 -28v-37q5 -10 8 -21q-9 -42 -28 -81q-9 -18 -17 -37l-24 -20q-2 -8 -4 -17l-29 -20q-2 -9 -8 -16h-4q-7 -7 -12 -17q-66 -26 -135 -4q-16 13 -33 25q-68 59 -50 140t63 145q36 45 53 98q-12 11 -29 13l-8 12h-20
q-1 10 -9 16l-28 25v20q-9 5 -17 12v21q-12 11 -20 24q2 20 -7.5 43t3.5 51q6 24 24 41h9q4 14 12 24q11 11 24 21q9 9 13 20l36 8q5 7 8 16q24 19 53 25h41q45 15 90 0q78 -63 94 -163q9 -63 1.5 -82t-22.5 -41q-11 -2 -20 -8q-1 -5 -4 -8q-18 -14 -41 -16q-38 -21 -61 -57
q3 -14 4 -29zM237 723q-20 -13 -45 -13q-21 -18 -45 -32q-51 -34 -41 -102q10 -9 21 -16v-17l12 -8v-16q19 -20 45 -33q0 -11 8 -20q12 -8 24 -17q15 -2 29 4q37 24 75.5 52t58 57.5t-7.5 74.5q-22 26 -49 49q-1 12 -8 20q-12 9 -24 17h-53zM249 343q-5 -6 -12 -4
q-19 -20 -37 -41q-45 -64 -69 -138q5 -30 4 -61q25 -36 61 -58q23 -11 49 -8q18 13 37 25q55 69 49 155q2 36 -9 69q-25 33 -57 61h-16z" />
    <glyph glyph-name="nine" unicode="9" 
d="M336 782q22 3 40 -8q45 -39 50 -99.5t-5 -116.5q6 -36 -45 -298q-7 -221 -12 -228q-5 -35 -4 -70q-16 -7 -33 -12q-20 -1 -40 4q-12 14 -9 33q8 33 13 249q8 7 12 16q-1 19 -8 37q7 8 12 16q0 14 -4 29h-4v4l-8 -4l-49 -37q-26 -5 -53 -4q-12 -3 -25 -4q-3 3 -4 8
q-8 -3 -16 -4q-19 8 -33 24l-12 4l-8 33q-13 5 -21 16v21q-26 121 17 196q14 26 32 49q11 1 17 8q29 42 65 77q22 8 41 21q16 18 36 28q30 3 58 12zM380 610q-5 34 -40 95q-32 15 -62 0q-45 -31 -85 -69v-13l-37 -28q-9 -19 -20 -37q-11 -57 -21 -81q7 -37 8 -74
q34 -40 82 -53q91 29 129 119t46 141z" />
    <glyph glyph-name="colon" unicode=":" 
d="M111 880q24 -8 50 -6q45 -45 77 -99q24 -124 -28 -238q-30 -18 -66 -11q5 -32 -28 -28q-49 42 -94 89q-31 69 -11 144v44q18 26 39 50q5 17 11 33q24 12 50 22zM116 243h39q58 -64 89 -146t-12 -164q-5 -19 -11 -38q-32 -31 -77 -39q-39 24 -83 39q-20 32 -44 61
q-14 92 5 182q11 12 22 22q7 26 17 50q24 21 55 33z" />
    <glyph glyph-name="semicolon" unicode=";" 
d="M117 880q14 2 26 -5q70 -69 107 -158q-11 -19 -5 -41q-11 -44 -41 -76q-43 -27 -82 10q-106 56 -102 173q25 48 62 87q16 9 35 10zM128 378q72 -35 116 -92.5t50.5 -120.5t-40 -120t-94.5 -103t-99 -86q-26 18 -46 41q-4 25 16.5 44.5t56.5 49t112 109.5l-62 11
q13 5 5 15q-3 7 -11 5q-12 -13 -30 -10q-31 17 -61 36q-44 92 6 160q18 22 40 41q21 9 41 20z" />
    <glyph glyph-name="less" unicode="&#x3c;" horiz-adv-x="848" 
d="M106 419v-16q49 -26 122 -86q212 -117 421 -279l66 -25q11 -21 30 -35h26q12 -16 15 -36q14 -2 20 -15q4 -26 -5 -51h-10q-38 -11 -61 26q-33 8 -66 15q-21 25 -46 45q-7 3 -15 6q-7 13 -15 25q-25 4 -88.5 55t-180.5 122q-165 83 -199.5 111t-72.5 44t-47 58q7 17 5 36
q28 27 411 284q5 13 96 73t106 63q17 13 36 21l10 -10q13 38 56 30q22 -29 15 -66q8 -8 -39.5 -28t-210.5 -133t-244.5 -151.5t-83.5 -52.5q-11 1 -20 -5q-8 -22 -31 -25z" />
    <glyph glyph-name="equal" unicode="=" 
d="M400 582l35 -16q21 -22 28 -52q-38 -20 -79.5 -27l-254.5 -45q-24 -7 -49 -13q-15 16 -35 27.5t-33 29.5q-5 7 -3 16l23 16q12 -1 24 -4q41 4 81 12q70 19 263 56zM435 530q-1 -9 7 -8v4q3 -3 5 0h-5q-2 6 -7 4zM334 274q28 2 56 -5t45 -32q5 -15 -9 -24
q-21 -13 -45.5 -11.5t-86 -18t-77.5 -22.5q-13 -6 -24 -17q-27 3 -53 0q-5 -2 -7 -8h-41q-13 13 -31.5 20.5t-28.5 24.5q-5 7 -4 16q10 9 24 8q33 11 68 16l150 40q33 3 64 13z" />
    <glyph glyph-name="greater" unicode="&#x3e;" horiz-adv-x="892" 
d="M238 -3q-56 -79 -78 -102q-10 -3 -19 -5q-6 -20 -20 -34h-29q-42 10 -53 49l126 135q16 11 97 73v10q11 -1 19 5q16 14 83 53q34 34 73 63q15 13 34 20q14 13 24 29q12 5 24 9q8 14 20 25l106 79t83 100q-22 6 -39 20l-39 14l-199 63q-400 181 -451 224v29q34 19 73 24
q10 -32 43 -19q16 -10 30 -25q140 -56 325 -140l160 -68l131 -44q6 -9 14 -15q25 -6 49 -14q13 -22 24 -44q-1 -35 -9 -68q-21 -6 -39 -19q1 -11 -5 -20l-83 -53q-12 -19 -29 -34q-17 -8 -34 -15l-72 -63q-14 -5 -25 -14q-98 -78 -109 -90.5t-206 -137.5z" />
    <glyph glyph-name="question" unicode="?" 
d="M340 600q32 53 6 151l-16 23l-31 8q-9 4 -16 12h-27q-50 13 -99.5 -6t-53.5 -77q17 -27 15 -59q-9 -2 -19 -3q-9 4 -20 3q-45 55 -51 126q13 10 8 27q7 5 16 8v12q4 7 11 12q80 30 167 20.5t147 -75.5l28 -20v-19q26 -29 23 -67q-20 -62 -55 -118q-27 -33 -40 -51
t-30 -39q-68 -91 -67.5 -110.5t-11.5 -38.5q-14 -85 24 -165q-12 -5 -24 -4l-35 12l-8 20q-23 28 -35 62q0 14 4 28q-14 30 -8 63q5 5 12 7q-1 20 16 39.5t170 218.5zM161 84q43 7 67 -28q36 -32 43.5 -95.5t-18.5 -85.5t-68 -15q-16 9 -35 12q-7 6 -8 15h-8
q-64 56 -53.5 108.5t33 66t47.5 22.5z" />
    <glyph glyph-name="at" unicode="@" horiz-adv-x="1052" 
d="M184 716q36 30 109.5 73.5t167 65.5t154.5 20q13 -2 23 5q83 -16 159 -56l47 -14v-9q16 -5 28 -15q9 -7 14 -18q6 -6 14 -5q11 -20 28 -37v-14q6 -8 14 -14q12 -18 19 -38q4 -4 9 -4q5 -21 9 -43l14 -14q25 -72 28 -149q-4 -5 -9 -10q-2 -37 -5 -74q-9 -6 -14 -14
q-4 -24 -9 -47q-18 -74 -89 -187t-136 -154l-88 -61q-33 -19 -71 -28q-46 -6 -93 -5q-118 -11 -208 34.5t-96 56.5t-23.5 23.5t-37 39l-48 63.5t-58 124t-22.5 162t23.5 129.5t68.5 125t78 88.5zM660 -30q52 52 81 100t47 71h-19q-14 25 -73.5 26t-76.5 12q-20 38 -61 42
q-89 -97 -158 -66.5t-98.5 76.5t-28.5 88q-29 134 61 290v19q14 17 33 28q3 10 9 18q18 6 37 5q28 20 61 23q90 -21 127 -101.5t9 -281.5q27 -27 45 -62t69 -33.5t73 81.5l5 -5q8 -44 9 -89q-16 -26 -14 -56h14q7 10 14 19q15 27 23 56q4 4 10 5q6 36 18 70q8 7 19 5
q-3 13 9 18v42l28 24q-2 78 -23 154q8 2 14 9q-9 5 -19 5v5l-18 51q-11 13 -19 28q2 9 5 19l-28 14q-8 21 -14 42q-9 7 -19 14q-7 10 -5 23q-15 11 -28 24q-31 4 -61 14q-23 6 -46 5q-1 5 -5 9q-11 3 -19 -5q-140 2 -233 -28t-171.5 -93.5t-128 -158.5t-14.5 -239l10 -70
q7 -3 14 -5q-1 -14 4 -28l28 -37q6 -13 5 -28q10 -6 19 -14v-10q9 -11 23 -14q17 -24 37 -46q17 -6 28 -19q7 -12 15 -23q123 -57 174 -64.5t92 3t111 39.5zM438 628l-11 -5q-19 -39 -39 -72t-26 -87.5t0 -153.5q18 -57 65 -94l52 14q19 29 33 61q10 60 -1.5 207.5
t-72.5 129.5z" />
    <glyph glyph-name="A" unicode="A" horiz-adv-x="770" 
d="M630 324q-25 1 -37 -19q0 -43 12.5 -77t20.5 -62q39 -75 55 -157q-9 -5 -18 -9q-14 18 -28 29t-23 22q-2 26 -70 199l-32 37q-50 -4 -98 -19q-253 -44 -268 -37q-23 -49 -24 -97q-41 -132 -50 -269l-30 -5q-39 27 -40 84q3 11 5 23q7 7 13 80t19 138q16 20 50 171.5
t57 231t51 162.5q9 22 23 42q1 24 9 46q14 22 32 42q90 -19 113 -68t31 -62q10 -15 14 -32q46 -75 111 -246q0 -56 47 -74q19 -1 37 5q46 16 78 4q17 -5 33 5q5 -2 4 -9q8 -10 10 -23q-28 -13 -56 -24zM445 366q27 12 37 41q-8 8 -9 19q-17 2 -33 5l-18 37q-64 209 -79 227
q-5 15 -5 32q-17 14 -37 23q-25 -39 -76 -204.5t-63 -235.5q23 -3 232 46q26 4 51 10z" />
    <glyph glyph-name="B" unicode="B" horiz-adv-x="675" 
d="M34 880q25 2 49 -5q32 -19 54 -49q-7 -56 0 -112q52 6 73 5q0 -5 5 -5q43 4 87 5q102 14 190 -34q24 -8 35 -29q23 -39 5 -83q-45 -76 -113 -132q1 -6 5 -10q44 4 96 -20t104 -116q8 -29 10 -59q-17 -57 -49 -107q-9 -25 -41.5 -57.5t-36.5 -44.5q-20 -10 -49 -39
q-16 -14 -34 -25q-77 -39 -161 -53q-11 -10 -24 -15q-56 -9 -112 -10q-8 -34 -44 -29q-27 11 -44 34v15q-20 102 -21.5 369t-2.5 309q-6 79 9 156q-1 44 -9 87q8 27 19 54zM280 430q99 73 105.5 88.5t14.5 20.5q3 17 15 26t24 34t0 62q-119 23 -234 -5q-13 -10 -39 -18
t-44 -41q-10 -25 -5 -53q-17 -76 -5 -152q62 2 117 15q13 8 51 23zM483 119q7 19 24 30q24 39 33 55.5t11 41.5q-20 17 -19 44q-12 10 -25 19v20q-52 47 -122 39q-15 8 -29 0q-34 -15 -107.5 -66t-98 -61t-48.5 -24q7 -155 5 -234q23 -17 49 -29q42 -8 83 4q157 91 189 121
t55 40z" />
    <glyph glyph-name="C" unicode="C" horiz-adv-x="968" 
d="M381 880q53 -2 106 -17t85 -60q3 -18 0 -36h-60q-26 21 -125 12q-36 -13 -66 -36q-19 -11 -66.5 -57t-69.5 -110q-45 -182 -39.5 -276.5t33.5 -157.5q6 -29 23 -54v-36l60 -65q46 -27 95.5 -14.5l122.5 32t124 53t75 60.5q13 -1 24 6q-1 10 34 41t37 48h12q12 13 18 30
q21 22 43.5 39.5t53.5 25.5t40 -29q-23 -33 -30 -72q-12 -20 -30 -35q-10 -17 -12 -36l-65 -66q-12 -26 -30 -47q-15 -2 -42 -30q-36 -30 -77 -54q-138 -58 -197 -59q-14 -1 -23 -12q-66 -15 -131 6q-109 42 -185 131q-46 51 -54 71q-12 11 -22 47t-22 95t-4.5 220.5
t66.5 250.5q21 35 48 66q67 69 155 107q50 0 95 18z" />
    <glyph glyph-name="D" unicode="D" horiz-adv-x="651" 
d="M31 880q53 -3 102 -26h46q40 -6 77 -20h41q194 -48 282 -225q59 -149 20 -267v-30q-16 -31 -72 -118q-28 -50 -61 -97q-23 -23 -51 -41q-92 -109 -139 -154h-15q-14 -18 -29.5 -34.5t-42.5 -11.5q-15 4 -30 10q-26 11 -46 31q1 14 -5 26h-11l-20 35q-15 42 -15.5 72.5
t-13.5 254.5t-9.5 318.5t-38.5 225.5q19 23 31 51zM154 767l-6 -123q-10 -109 1.5 -340t4.5 -264l10 -71q11 -7 25 -5q31 40 72 71q10 16 21 31q17 4 30 15q-1 9 5 16q53 54 77 76l26 52q6 13 16 18t50.5 96.5t23.5 200.5q-7 54 -32.5 84.5t-44 50t-39.5 26.5q-49 34 -71 41
v5h-26q-10 8 -21 15q-23 -3 -46 -5q-37 13 -76 10z" />
    <glyph glyph-name="E" unicode="E" horiz-adv-x="677" 
d="M62 244l-5 25q7 151 -1 263.5t-4 122.5q-1 40 -10 79q-19 25 -42 47v10q24 5 47 11q6 12 5 26q24 28 63 21q49 -38 88.5 -31t73 16.5l84.5 24.5t104 0q25 -10 47 -26q-8 -22 -26 -37q-65 -11 -119.5 -26t-206.5 -60q4 -278 18 -321q10 0 15 10q233 71 256 68
q50 34 105 11q9 -10 5 -21q-21 -34 -63 -42q-6 -10 -15 -16q-37 -10 -143 -54t-137 -51t-29 -46q-6 -39 -15 -282h10q67 -9 126 31h36q23 15 47 26q45 5 89 16l99 31q33 22 73 21q4 -26 6 -52q-6 -5 -11 -11h-16q-6 -11 -15 -20q-244 -100 -331.5 -123.5t-112 -20t-58.5 1.5
q-17 20 -57 42q-5 3 -11 5q2 7 8.5 20t22.5 311z" />
    <glyph glyph-name="F" unicode="F" 
d="M151 328q22 2 44.5 8t59.5 15q180 73 202 83t29 -49q-28 -21 -69.5 -47t-79 -41.5l-55 -23t-46.5 -11.5q-51 -17 -85 -57q-2 -23 0 -47q-4 -62 5 -123q-4 -18 -5 -37q4 -64 0 -128q-18 -17 -42 -14q-14 5 -29 9q-19 23 -33 48q2 38 -0.5 64t0.5 44q4 243 -9 462
t-21 246.5t-10.5 66.5t1 56.5t52.5 17.5q43 4 49 -42q11 -26 13 -57t29 -47q38 12 127 36.5t152 29.5q22 -34 23 -47l-28 -23q-68 -13 -158.5 -47t-106.5 -34q-29 -46 -14 -99q13 -106 5 -212z" />
    <glyph glyph-name="G" unicode="G" horiz-adv-x="751" 
d="M484 28h-19q-57 -61 -139 -84q-27 -30 -62.5 -17.5l-49.5 17.5t-19 10q-12 7 -27 9q-14 10 -56 37q-8 12 -14 24h-10l-18 32q-49 89 -49.5 189t18 191t63.5 160l10 37q11 5 63 89.5t76 96.5q10 0 14 6.5t22.5 24t65 23t66.5 -43.5q-8 -18 -14 -37q-132 -75 -197 -206.5
t-96 -273.5l4 -46q-12 -66 19 -126q-1 -19 5 -37l32 -38q33 -27 42 -37h14q19 -22 47 -28q7 3 14 5l23 28q12 -3 23 0q94 57 140 135q10 9 33 53.5t18 193.5q-11 5 -23 4q-96 -25 -196 -32q-39 20 -51 60q35 10 70 19h32q253 61 289 74q17 5 28 -9q21 2 42 9q10 -12 9 -28
q-7 -5 -5 -14l-41 -28q-9 -3 -14 5q-15 -1 -28 -9q0 -16 -10 -28q7 -23 5 -47q-5 -469 -14 -512q-18 -17 -42 -23q-23 28 -51 51q1 23 0 47q-3 12 -14 18q3 33 5 66q-13 8 -28 13v-9q-7 -5 -5 -14z" />
    <glyph glyph-name="H" unicode="H" horiz-adv-x="720" 
d="M20 690q-8 36 -7 56l5 81q-10 8 -9 22q33 28 71 13q19 -9 31 -27q-2 -42 0 -338q-4 -22 -4 -41v-35q13 -258 18 -338q-16 -17 -36 -27q-13 15 -31 23q1 23 -18 35q-2 43 -20 576zM573 408l1 18q8 36 -22 62q-13 11 -31 9q-48 -24 -111 -41t-114 -54.5t-113 -46.5
q-13 18 -27 35h-14q-8 8 -13 18q-2 7 5 9q40 33 96.5 51t187.5 55.5t143 58.5q17 10 27 26q-21 52 0 107q2 27 -5 120q13 17 31 27q16 6 32 9q25 -11 35 -36q-1 -80 0 -160q-4 -18 -13 -35q7 -384 13 -441q-13 -249 0 -325q-13 -14 -31 -18q-22 0 -40 13v27q-22 6 -31 27
q15 46 -6 485z" />
    <glyph glyph-name="I" unicode="I" horiz-adv-x="640" 
d="M470 80l63 14l67 5q6 -10 5 -21q-1 -5 -5 -10l-72 -41h-26q-24 -11 -42 -31q-49 -13 -85 -33.5t-44 -28.5q-21 2 -124 -47h-26q-45 -28 -98 -31q-12 14 -21 31q-11 -1 -21 5v11q-7 6 0 10q42 39 144.5 76.5t110 52.5t14.5 57q-28 44 -50.5 279.5t-24 290.5t-38.5 77
q-59 -37 -125 -57q-22 20 -49 35t-23 53h10q55 20 114 25q19 13 181 47q15 5 26 15q66 14 134 11q12 -30 6 -62q-20 -19 -47 -16q-38 8 -72 -15q-26 6 -42 8q15 -46 28 -99t24.5 -226t46.5 -376q22 -7 61 -9z" />
    <glyph glyph-name="J" unicode="J" horiz-adv-x="733" 
d="M386 -16l-9 -27q-21 -18 -45 -34t-28 -33q-20 -15 -46 -20.5t-60 -3.5q-10 9 -28.5 12.5t-49.5 23.5t-43 36q-76 106 -77 237q16 10 29 24l77 -10q15 -12 24 -29q3 -54 24 -111.5t34 -71.5q1 -16 10 -29q10 -6 19 -15h5q36 30 68 63q12 52 50 124q22 37 42 156
q7 35 8.5 112.5t-13.5 211.5q-6 33 -5 67q-2 14 -10 25h-9q-41 7 -223 -49l-9 -9q-41 2 -73 29v19q6 14 5 29q25 15 53 24h39q80 16 132 38.5t187 53.5q12 9 24 19h34q6 10 14 20q26 -6 53 -5q7 7 15 14q41 3 77 -19q7 -4 10 -10q2 -15 -10 -24q-17 -19 -77.5 -42.5
t-86.5 -39.5q-39 19 -48 -19q9 -33 24 -160q1 -30 -1 -64.5t1 -65.5q-2 -25 -5 -49q-10 -182 -19 -188q2 -24 -5 -48q-17 -77 -78 -162z" />
    <glyph glyph-name="K" unicode="K" horiz-adv-x="637" 
d="M83 407l4 -91q19 14 30 35l135 147h8q5 9 9 18l39 39q5 8 9 17h8q5 6 9 13q9 8 22 9q38 60 104 78q27 -23 30 -57q-12 -12 -21 -26q-17 -1 -31 -8q-22 -15 -43 -31l-22 -34q-18 -5 -30 -18v-9q-20 -15 -51 -52.5l-144 -181.5l34 -30q15 -8 31 -9q8 -9 66.5 -38t67.5 -36
q14 -8 239 -108q8 -10 8 -22q10 -19 0 -39q-11 -4 -17 -13q-22 7 -39 22l-65 22q-19 11 -51.5 32.5t-217.5 114.5q-12 11 -33.5 19t-22.5 16h-22q-17 16 -39 21q-4 -3 -9 -4v-26q-1 -32 0 -65q-5 -83 9 -165q1 -46 -9 -91h-22q-14 12 -26 26q-9 31 -4 65q-7 32 -10 68.5
t-3 57.5v78q-10 50 -3.5 137t8.5 172.5t-5 128.5q1 144 9 287q11 0 21 4q22 -39 61 -61q-4 -54 -13 -108q-2 -18 4 -35z" />
    <glyph glyph-name="L" unicode="L" horiz-adv-x="776" 
d="M704 169q2 -15 -5 -29q28 -11 28 -39q-17 -66 -58.5 -88.5t-49.5 -37.5q-22 -9 -222.5 -50t-295.5 -69q-20 11 -39 23q-41 14 -35 182q-4 14 -5 28v97q11 68 5 136l17 274v147q-17 64 -17 131q11 7 23 6q58 -64 91 -142q14 -87 -3.5 -329t-13.5 -399q10 -7 23 -6
q34 27 76.5 26t82.5 8q125 19 245 57q16 9 56.5 29.5t62.5 27.5q14 14 34 17z" />
    <glyph glyph-name="M" unicode="M" horiz-adv-x="1042" 
d="M751 880h16l21 -38q8 -2 16 -5v-11q9 1 16 -5q2 -20 11 -38q11 -20 27 -37q52 -211 123 -718q28 -64 27 -134q-20 -20 -48 -17q-32 11 -49 38q-18 84 -21 172l-54 305v43q-7 43 -16 86q-9 4 -16 11q-3 17 6 32q-7 32 -17 64l6 32q-8 5 -16 11v27q-13 14 -32 10
q-28 -41 -59 -80q-24 -43 -92 -182l-26 -43q-24 -67 -59 -129q-6 -16 -11 -32q-19 -17 -32 -38q0 -42 -27 -69q-13 -7 -27 -6q-36 26 -70 54q1 14 -5 27q-11 8 -45 63t-51 92q-14 16 -33 27q1 14 -5 27q-22 38 -54 70h-10v-11q-11 -36 -6 -75q-2 -75 -5 -150
q-4 -196 -16 -392h-11q-9 -8 -21 -5q-24 15 -38 38q-28 52 -20 110t4 115q16 260 16 396t-5 252q-1 44 5 86q9 9 22 6q41 -41 69 -92q3 -54 25.5 -118t39.5 -85q8 -15 10 -32q13 -12 27 -22l22 -54l27 -32q18 -42 39 -84.5t62 -65.5q117 263 268 509q21 28 54 43
q21 26 38 54z" />
    <glyph glyph-name="N" unicode="N" horiz-adv-x="798" 
d="M638 880h21q34 -33 64 -69q-1 -32 5 -64q-4 -219 37 -705q-2 -118 -4 -160q-14 -11 -32 -10q-5 15 -15 26q-11 1 -22 5q0 7 -1 15l-5 -9q-46 20 -74 64q-22 7 -32 26q-4 13 -6 27q-12 8 -26 10l-37 69l-27 22q-171 230 -201 275l-58.5 97t-85.5 68l-5 -5
q-14 -125 -11.5 -211.5t15 -230t1.5 -264.5h-26q-37 44 -59 96v74q-7 51 -22 624q-16 148 -9 166q10 13 21 6q52 -23 69 -80l58 -53l21 -42q22 -26 48 -48l53 -69l101.5 -155t148.5 -201q2 -13 5 -26l42 -48h11q10 -24 27.5 -39.5t41.5 -24.5v16l-21 112q11 22 5 47
q-31 166 -21 335q-2 27 -11 53q-4 34 0 69q4 29 0 58q-18 80 16 154z" />
    <glyph glyph-name="O" unicode="O" horiz-adv-x="609" 
d="M398 -124q-97 -10 -118 -14t-46 -1q-34 18 -63 44l-25 10q-17 30 -29 63q-15 9 -29 19q-13 31 -20 64q-65 172 -55.5 367.5t21.5 251.5q10 8 15 20v19q11 11 19 24v15q43 64 117 88q138 23 234 -83q1 -10 5 -20q22 -28 49 -53q2 -20 40 -61.5t49.5 -165.5t1 -235.5
t-43.5 -188t-122 -163.5zM395 704h-15q-41 69 -96 65.5t-65 -26.5q-16 -8 -29 -21t-36 -53t-38.5 -85.5t-20.5 -110t12 -266.5q9 -49 15 -93q1 -22 10 -43h9v-44q8 -10 20 -15q6 -14 5 -29l34 -25h83q20 12 44 15q33 30 63 63l49 59q23 52 39 107v54q24 72 10 146q6 45 0 88
l-25 54q-1 11 5 19q-10 16 -24 29l-20 69q-23 16 -29 43z" />
    <glyph glyph-name="P" unicode="P" horiz-adv-x="548" 
d="M317 291q-61 -46 -80 -59q1 -8 -4 -15h-20q-34 -34 -25 -84l10 -84q-6 -34 5 -134q0 -22 5 -44q-11 -4 -15 -15q-6 1 -10 5q-43 21 -64 64q1 42 -5 84q-17 117 -14 231q-36 377 -55 437q-36 13 -40 50q-5 20 5 39q17 16 35 30q6 23 10.5 49t38.5 25q12 -28 40 -25l44 30
q21 0 40 -10q25 -1 49 5q35 -18 69 -39q10 -3 24 -5t55.5 -22.5t79.5 -78t22 -176t-83.5 -172t-116.5 -86.5zM242 761q-22 -17 -49.5 -27.5t-34.5 -41.5q14 -48 5 -99q9 -97 20 -193q-9 -44 5 -84q7 -3 15 -5q18 32 54 45q15 17 25 39q16 2 30 10q-1 9 5 15q26 28 49 59
q32 19 50.5 68t-0.5 96q-29 39 -50 84l-40 34h-84z" />
    <glyph glyph-name="Q" unicode="Q" horiz-adv-x="822" 
d="M199 880q21 -15 46 -20q29 20 66 10q90 1 153 -61q15 -19 25 -41q28 -26 51 -56q-1 -9 5 -15q5 -14 20 -21v-30q9 -21 21 -41q30 -70 37.5 -131.5t-2.5 -136.5t-25 -119q-9 -6 -20 -10q10 -5 20 -6q-1 -36 5 -71q53 -20 100 -55t63 -57h5v5l-5 -15q-40 -25 -81 10h-36
q-22 17 -46 31q-26 -1 -51 5q-17 -16 -35 -31q-3 -8 -6 -15l-25 -46l-20 -20q-18 -11 -41 -35t-107 -47q-71 -2 -138 20q-29 30 -56 62q-27 22 -46 51q-9 24 -10 50q-11 4 -31.5 57.5t-31.5 164t29 275.5t80 227q7 17 32 54.5t55 57.5zM107 253q-11 -65 -5 -92.5l15 -65.5
q11 -33 31 -61q3 -15 5 -30q20 -16 35 -36q44 -14 87 -5q103 39 168 127v5l-71 82q-12 -6 -26 -5q-27 31 -25 71v10q15 4 25 16q45 2 78 -26t75 -35q8 14 10 30q34 93 21 194q8 59 0 117q-19 65 -45 108t-52 75l-51 26q-8 12 -20 20q-31 2 -61 -5q-18 3 -36 5
q-67 -28 -104 -116t-45.5 -148.5t-6 -79.5t-9.5 -26t-10 -31t0.5 -33t-3.5 -45q5 -35 20 -46z" />
    <glyph glyph-name="R" unicode="R" horiz-adv-x="775" 
d="M83 824h14q10 -10 14 -23q-6 -32 23 -37q29 19 65 23l51 19q122 3 209 -33q14 -16 30 -20.5t29 -35t17.5 -52.5t1.5 -49q-5 -55 -22 -82t-35.5 -53t-37 -46.5t-58.5 -25t-60 -53.5q11 -9 14 -23q41 -15 110.5 -90t75.5 -86l23 -14q15 -29 37 -51q19 -5 32 -18
q31 -60 93 -88q10 13 28 14v-10q-2 -23 4 -46q6 -16 10 -32q1 -19 -5 -37q15 -3 14 -19q-32 6 -65 9v23q-11 5 -19 14q-10 -9 -23 -4l-18 23q-2 6 -9 5h-5v18q3 11 0 23q-17 -2 -139 139q-32 30 -70 51q-53 60 -69 70q-43 49 -102 74q-9 -48 -56 -56q-38 4 -69 28
q-6 11 -9 23q-4 -4 -5 -9q-4 -7 -9 -14q5 -15 14 -28l-7 -45q11 -39 20 -80l10 -40q20 -86 14 -113q-9 -33 9 -65q-6 -5 -14 -4q-13 -7 -28 -5q-16 9 -28 23l-4 33q-10 16 -47 236q5 9 5 19q-10 42 -20.5 198t1.5 270t10 194q15 10 32 14q10 -14 19 -28q6 -13 4 -28z
M102 583h-5v-4q6 -35 0 -70q2 -43 0 -185q6 -10 14 -19v5l28 37q229 125 274.5 183t56.5 120q-6 40 -34 45q-8 24 -33 23q-19 13 -67.5 10t-131 -18.5t-102.5 -126.5z" />
    <glyph glyph-name="S" unicode="S" horiz-adv-x="609" 
d="M90 650q-2 -73 26 -113.5t79 -69.5t98 -30.5t89.5 -11t78 -38t57.5 -58t52 -79.5t12 -156q-7 -35 -34 -58q-11 1 -19 -5q-23 -25 -49 -44h-29q-2 -10 -5 -19q-8 -7 -19 -5q-9 -15 -24 -21.5t-34.5 -16t-38 -28.5t-39.5 -31q-22 -13 -118 10q-31 17 -39 49q8 11 10 24
q47 25 87.5 29t103.5 28q179 116 163.5 178t-29.5 72t-23 22q-20 11 -43 15l-32.5 36.5t-104 37.5t-123 35t-71.5 54t-34.5 49.5t-22.5 34.5q-17 60 -5 122q14 10 24 24v19q8 16 24 25q3 14 5 29q14 8 29 14q126 77 272 102q27 2 49 -14q24 2 48 9q22 -23 49 -39
q49 -53 53 -126q-9 -4 -19 -5q-15 3 -30 5l-38 44q-33 9 -68 10l-39 14q-2 -5 -5 -9q-76 -2 -114.5 -12t-99.5 -42q-47 -25 -60 -60z" />
    <glyph glyph-name="T" unicode="T" horiz-adv-x="696" 
d="M533 795q-60 1 -89 -7q-26 0 -34 -18q6 -35 7.5 -102t-7.5 -206v-74q-1 -84 -9 -92q-1 -15 13 -131q1 -53 -13 -104q3 -4 4 -9q-6 -11 -4 -22q9 -27 9 -56q-9 -5 -18 -9q10 -5 18 -13v-22q8 -38 -9 -74q-25 0 -48 9q-22 56 -17 117v53q4 92 -5 142q4 24 9 48
q-11 187 -4 402q-6 52 -5 105q-9 6 -17 13q-181 -45 -191.5 -44.5t-9.5 -7.5q-44 -13 -87 8q-27 23 -26 57l4 4q110 40 340 83q68 17 196 26q22 6 40 -8q28 1 56 4q31 -13 31 -48q-15 -5 -31 -4z" />
    <glyph glyph-name="U" unicode="U" horiz-adv-x="694" 
d="M565 880h37q18 -28 31 -58q-10 -41 0 -85q22 -150 19.5 -251l-3.5 -144q7 -98 -26 -190q-6 -9 -16 -48q-18 -41 -42 -79q-6 -25 -30 -50t-55 -50q-30 -3 -42 -21q-67 -40 -116.5 -37.5t-73 14.5t-92 86.5t-83 150t-29.5 112t-24 132.5t-4 149q-5 24 -11 47q-1 48 6 95
q-14 77 5 153q3 29 32 26q15 -11 26 -26q6 -26 12 -56.5t4 -54.5q-2 -225 24 -416t107.5 -268t140 -58.5t97.5 67.5q92 121 116 274q8 50 6 100q-5 10 -6 22q11 82 3 127.5t-8 56.5l-10 79q-24 87 -16 175q9 14 21 26z" />
    <glyph glyph-name="V" unicode="V" horiz-adv-x="914" 
d="M807 880q69 -20 71 -94q17 -17 11 -41q-4 -27 -17 -52v-41q-15 -19 -24 -41q-15 -42 -35 -82q-38 -79 -41 -100q-24 -37 -52 -70l-24 -88q-71 -102 -93 -169q-11 -3 -18 -12q-9 -29 -17 -58q-4 -8 -12 -12q-7 -20 -6 -41l-29 -41q4 -61 -47 -82q-14 7 -29 12
q-14 16 -24 35v6q-36 -2 -58 23q-11 31 -29 59q-17 12 -66 105t-51 123q-109 254 -144.5 330.5t-43.5 108.5q-6 20 -23 35q-2 38 6 76h29l47 -24l6 -29q29 -36 52 -76q55 -113 87 -207.5l42 -125.5q8 -4 12 -12q16 -18 17 -41q20 -49 33.5 -103.5t60.5 -83.5q91 204 211 392
l35 82q12 11 23 23q-1 21 6 41l35 35v35q35 110 99 205z" />
    <glyph glyph-name="W" unicode="W" horiz-adv-x="1144" 
d="M630 560l77 -393q2 -18 11 -34q6 -5 12 -11q4 -22 0 -45q17 -9 34 -17v5q33 66 56 136v34q55 181 68 209v34q19 57 40 113v34q7 7 17 6v40q12 52 30 106t72 75q9 -8 22 -6q33 -49 46 -107q-19 -3 -29 -17q15 -11 12 -29q-15 -3 -29 -5q-2 -31 -5 -63q-11 -2 -17 -11
q11 -15 11 -34q-7 -17 -68 -215q-10 -36 -18 -61.5l-78 -249.5q-16 -86 -57 -164q-60 -31 -107 45q-24 47 -45 96q-14 13 -23 29v17q-17 33 -41 91.5t-33 89.5q-11 9 -17 22q-6 28 -5 57q-7 8 -17 11l-19 142q-48 -121 -60 -193q-8 -11 -17 -39q-21 -47 -25.5 -81.5
t-27 -80.5t-55.5 -121v-40q-9 -11 -17 -22q5 -26 0 -51q-9 -8 -22 -6q-17 16 -40 23q-10 13 -17 28q-20 4 -34 17l-6 34q-13 28 -28 56q-6 31 -11 63q-7 8 -17 11q-7 25 -6 51q-9 11 -17 23q-9 56 -17 113l-68 249q-13 22 -22 45q-9 53 0 107q-21 75 -17 153h11q17 5 34 0
q29 -38 51 -79q18 -87 28 -176l40 -203q57 -215 56 -243q16 -31 29 -63q3 3 5 6q44 83 68 175q75 182 109.5 300.5t24 160t7.5 67.5t40 32t54.5 1.5t66.5 -247.5z" />
    <glyph glyph-name="X" unicode="X" horiz-adv-x="668" 
d="M363 396h-25v-5q5 -18 0 -36q21 -46 61 -80q-1 -16 5 -31q7 -5 15 -10q22 -25 52.5 -70.5t66.5 -84t47 -62.5q12 -12 30 -15q27 -39 36 -85q-2 -3 -5 -6q-41 12 -81 26l-25 40l-41 40h-10v16q-30 28 -83.5 102t-80.5 101l-55 54l-139 -303l-20 -81q-24 -20 -25 -50
q-29 3 -56 15q-12 11 -20 25q9 76 51 142l15 45l30 35q9 36 20 71q58 87 86 187q-5 21 -15 40q-22 14 -36 35q-97 124 -126 148t-30 64q19 17 45 15q24 -13 46 -30q7 -15 15 -30q77 -83 91 -96q6 -6 15 -5q3 -13 5 -25h10l30 -41h10l157 308q23 62 65 111q16 13 36 10
q49 -42 55 -106q-13 -22 -25 -45q-19 -11 -35 -26q-14 -57 -64 -117.5t-74 -107.5t-24 -82z" />
    <glyph glyph-name="Y" unicode="Y" horiz-adv-x="703" 
d="M479 493l-22 -38q-15 -32 -36 -37q-15 -20 -28 -41q6 -50 9 -126.5t0 -133.5q6 -66 5 -133q0 -14 9 -23q9 -50 5 -100q-11 -6 -23 -5q-37 20 -69 46q-17 46 -19.5 151.5t-26.5 296.5q-43 24 -68 68l-32 28q-42 63 -65 102l-66 113t-52 105q12 11 27 18q29 -14 55 -32v-9
l46 -87q14 -20 41 -82q18 -25 46 -73q21 -51 73 -64q32 15 59 36l74 110q13 20 32 36l86 142q17 34 32 69q10 6 19 13q2 23 18 37h27q3 0 5 -5q35 -34 32 -82q-15 -3 -18 -18q11 -6 9 -18q-19 -14 -41 -19q-3 -30 -16.5 -50z" />
    <glyph glyph-name="Z" unicode="Z" horiz-adv-x="975" 
d="M654 674l-21 -59q-60 -79 -66.5 -97.5t-64 -102t-101.5 -166t-51.5 -103t-10.5 -43.5q-15 -35 -34 -69h69q87 -1 173 12q72 2 136.5 16.5l104.5 23.5q55 28 115 35q24 -7 46 -18v-23q-12 -19 -40 -74q-31 -12 -63 -23q-18 1 -35 5q-16 -19 -29 -40q-54 -16 -109 -26
t-477 -43q-28 -11 -58 -17q-77 2 -138 46v40q78 45 167 58l17 23q8 19 6 40q9 -2 11 6l29 86q12 11 21 34t25 52l46 63l74.5 137.5t11.5 24.5q15 22 63 106.5t55.5 101.5t14.5 39q14 19 23 40q-9 1 -17 6h-29q-8 8 -18 6q-2 -3 -5 -6q-34 -7 -85 -26.5t-138 -29
t-144.5 -19.5t-81.5 -17q-35 33 -34 80q7 4 11 12q70 12 138 34q46 8 357 58l126 23q102 -47 64 -150q-23 -5 -35 -23q-13 -19 -19 -33z" />
    <glyph glyph-name="bracketleft" unicode="[" 
d="M261 871l27 5q3 -13 4 -26q-13 -5 -12 -50h-60q-45 5 -63 9t-42 4t-35 -26q39 -101 30 -212v-67q6 -32 -15 -261.5t-15 -280.5q43 -14 89 -8q66 -17 136 -9q-1 -9 5 -69l-107 -7q-33 -7 -68 4q-66 -27 -118 17q-19 59 -3 278t8.5 349.5t-9.5 180.5l-5 153q24 20 55 17z
" />
    <glyph glyph-name="backslash" unicode="\" 
d="M37 880q21 -2 42 -9q4 -26 52 -130t55 -131q9 -19 36 -99.5t39 -105.5q1 -24 9 -46q12 -23 23 -47q115 -340 121 -368q16 -36 28 -74l-18 -14q-57 9 -94 51v37q-5 7 -13 10q-1 24 -52 130q-8 23 -9 47q-14 14 -23 32q-8 35 -51 200q-14 16 -61 146.5t-56 147.5v28
l-60 162q8 23 32 33z" />
    <glyph glyph-name="bracketright" unicode="]" 
d="M152 876q78 -12 156 -17q17 -24 33 -49q6 -37 -33 -514l-12 -86l-12 -214q7 -49 8 -99h-8q-41 0 -82 4q-3 -7 -9 -12q-11 -3 -20 4l-37 -8q-5 -8 -13 -13h-24q-17 -6 -33 -16l-45 4q-17 20 -21 45l16 25l24 20q82 12 178 29q11 36 29 379q-2 21 3 83.5t5 167.5
q9 91 8 181q-3 3 -4 8q-35 10 -93.5 -3.5t-140.5 11.5q-9 26 -4 53q38 13 131 17z" />
    <glyph glyph-name="asciicircum" unicode="^" 
d="M216 876v-8q23 -5 25 -29l16 -8l53 -106q15 -19 33 -37q10 -18 40.5 -77t69.5 -151q10 -12 24 -21q5 -36 4 -73q-9 -5 -20 -4q-27 18 -112 168.5t-104 161.5q-6 30 -29 49v4h-4v-4q-21 -55 -28 -114l-70 -204l-23 -63t-46 -43q-16 10 -29 24q2 73 37 139l87.5 326
t39.5 70h36z" />
    <glyph glyph-name="underscore" unicode="_" horiz-adv-x="655" 
d="M539 151q38 10 69 -12q12 -34 12 -69h-41q-163 -26 -216 -25l-196 -32q-59 -13 -118 -9q-50 21 -49 78q7 11 20 16q61 21 127 21z" />
    <glyph glyph-name="grave" unicode="`" horiz-adv-x="301" 
d="M230 410q-32 6 -68 28.5t-44 32.5q-5 5 -4 12q-18 17 -66 78q-23 39 -27.5 67.5t-5.5 126.5t131 120q65 -5 111 -82t-50 -163l-40 -36q-30 6 -45 -13q-2 -26 11 -54t97 -117z" />
    <glyph glyph-name="a" unicode="a" horiz-adv-x="570" 
d="M530 162q-4 -46 -49 -45q-32 -15 -65 0h-53l-8 8l-33 4q-32 33 -73 49v-4h-4q-2 -66 -49 -114q-57 -28 -118 -8q-44 36 -57 92.5t-8 102.5t18.5 109.5t39 122t92.5 71.5q46 0 103.5 -36.5t47.5 -196.5q3 -11 12 -16q4 -35 9 -70q27 -52 81 -69l33 20q5 10 8 21
q19 12 41 16q9 -20 28 -33zM163 456q-32 -8 -62.5 -128.5t30.5 -222.5q6 -1 8 4q34 19 55.5 113t-14.5 226q-8 5 -17 8z" />
    <glyph glyph-name="b" unicode="b" horiz-adv-x="368" 
d="M74 787q49 0 90 -25v-37l-4 -37q-32 -98 -28 -200v-33q5 -18 24 -12q28 8 57 4q64 -20 107 -70q1 -23 8 -45q3 -3 8 -4q23 -153 -43.5 -226t-91.5 -81l-20 -21q-51 -12 -103 0q-22 22 -20 53q-19 40 -30 228.5t4 310.5t30 186q6 5 12 9zM197 377q-14 -9 -29 -16
q-11 -24 -32 -37q-7 -64 -9.5 -104.5t21.5 -137.5q4 -3 8 -4q6 -2 8 4q66 48 80.5 95.5t19 103.5t-54.5 96h-12z" />
    <glyph glyph-name="c" unicode="c" horiz-adv-x="446" 
d="M170 491q40 1 73 -20q22 -17 21 -45q-16 -6 -33 -9q-36 16 -61 -16q-17 -30 -21 -66q-14 -17 -24 -36q6 -10 4 -21q-6 -12 -13 -24q-35 -136 42.5 -157t124.5 37.5t120 69.5q12 -12 12 -28q-13 -43 -32 -82q-51 -49 -115 -78q-18 -5 -37 -4q-27 -15 -152 12l-16 25
q-11 8 -24 12q-6 19 -17 37l-12 45l4 70q-10 39 4 77q9 9 16 21q3 41 17 78l20 16q-1 11 4 21q28 31 62 57q18 -2 33 8z" />
    <glyph glyph-name="d" unicode="d" horiz-adv-x="438" 
d="M252 809q57 9 85 -37q24 -38 17.5 -81.5t-0.5 -85.5q7 -67 8 -135q1 -23 -4 -45q-8 -194 28.5 -350.5t11.5 -183.5l-20 12h-29q-25 28 -36 65v29q-6 28 -21 53q-9 6 -20 4q-36 -48 -102.5 -46.5t-119.5 68t-37 161t47.5 129.5t89.5 56t106 11q5 18 4 37q-5 44 -4 90
q-20 173 -21 212q4 20 17 37zM215 360q-13 -14 -41 -33.5t-51 -78t-14.5 -85.5t28.5 -68q17 -18 41 -21q16 11 33 21q48 43 53 90q4 181 -14 175h-35z" />
    <glyph glyph-name="e" unicode="e" horiz-adv-x="487" 
d="M182 496l18 4l46 -9q32 -9 53.5 -28l36.5 -33q21 -92 -14.5 -130.5l-43.5 -47t-57 -43.5q-13 -15 -30 -27t-43 -9q-7 -8 -4 -17q29 -47 77 -77q73 -24 100.5 0.5t38.5 44.5q52 13 66.5 -11.5t-1.5 -33.5v-12q-40 -38 -89 -61q-28 -4 -57 0q-32 -8 -62 4l-28 20h-21
q-5 2 -8 8l-37 16q-75 72 -96.5 154t-1 171t130.5 116q7 2 26 1zM221 438q-127 -18 -135.5 -94t10 -94.5t60 -3.5t82.5 74q5 22 8 45q7 17 8 36q-3 15 -12 29q-9 8 -21 8z" />
    <glyph glyph-name="f" unicode="f" horiz-adv-x="528" 
d="M300 600q-1 -104 -3 -138q2 -26 3 -92q4 -22 9 -23q19 -5 175 4q13 -13 12 -32q-9 -23 -103 -30.5t-92 -14.5q-6 -52 24 -253q13 -25 29 -49q1 -16 -9 -28q6 -10 5 -21q-11 -13 -29 -8q-14 18 -37 16q-2 9 -8 17q-5 11 -4 24q-12 8 -37.5 75t-39.5 194q-10 5 -21 4
q-52 -29 -110 -44q-43 14 -65 48q6 3 4 9l110 45q16 5 33 4l53 24l8 57q-1 41 0.5 180.5t17 211t104.5 65.5q52 -7 101.5 -78t49.5 -101q-8 -8 -20 -9q-31 8 -57 25q-42 73 -72.5 73t-30.5 -155z" />
    <glyph glyph-name="g" unicode="g" horiz-adv-x="390" 
d="M366 305q-9 -54 -53 -90q18 -101 -3.5 -185t-29.5 -90l-8 -28q-9 -7 -21 -5q-4 -16 -16 -24q-43 -21 -98.5 -1t-79.5 44t-36 49.5t-7 58.5q29 80 90 140q20 8 37 20q-1 6 4 8q56 29 78 86q-9 3 -13 13q6 9 9 20q-6 5 -13 4q-21 7 -37 -12q-46 4 -86 29
q-61 46 -68.5 137.5t9 157.5t92.5 94q132 11 166 -67.5t14 -223.5q5 -18 7 -92t21.5 -52.5t41.5 9.5zM153 661q-46 -34 -47.5 -78.5t-9.5 -60.5l8 -58q1 -25 6.5 -54t38.5 -23q23 22 41 49q22 43 26.5 88t-6 80.5t-45.5 56.5h-12zM219 145h-17q-61 -53 -94 -127l4 -37
q4 -7 12 -12q-1 -21 17 -25q16 -1 50 12t40 47t14.5 76.5t-26.5 65.5z" />
    <glyph glyph-name="h" unicode="h" horiz-adv-x="655" 
d="M140 230l-10 -90l4 -74l-4 -56q-56 -1 -90 -1q-5 3 -8 8q0 38 16 74q-2 26 -10.5 68t-4.5 59t-13 82q-6 127 8 439q-6 7 -12 13q5 20 4 40q21 18 49 13q23 -3 36 -21q8 -21 5 -45q11 -17 8 -36q-20 -204 -25 -372q7 -42 14 -34t44 60t81.5 61t63 10t38.5 -11
q16 -9 33 -16q19 -18 32 -41q30 -35 36 -102.5t21 -87t30 -29.5t53.5 -29.5t-39.5 -51.5q-75 4 -110 50q-17 57 -22.5 102t-25.5 115q-37 32 -75 33.5t-57.5 -17t-69.5 -113.5z" />
    <glyph glyph-name="i" unicode="i" horiz-adv-x="262" 
d="M117 710q75 -22 74 -65.5t-17.5 -68t-31.5 -22.5q-83 -8 -102.5 54.5t40.5 97.5q19 -1 37 4zM70 460l30 30q47 -10 70 -26v-20q4 -5 9 -9q-24 -141 -5.5 -234t17.5 -114q5 -6 12 -8v-16q34 -20 33 -54q-31 -16 -66 -12q-20 16 -45 25q-52 68 -55 438z" />
    <glyph glyph-name="j" unicode="j" horiz-adv-x="351" 
d="M128 833l63 -12q24 -30 44 -67q7 -17 2.5 -48t-22.5 -35q-40 -4 -79 4q-65 23 -75 91q6 5 4 12q15 20 32 39zM-2 -73q10 49 32 67q9 5 20 4q18 -14 23 -35q-17 -38 3 -47t37 -5q33 22 59 51q2 18 23 59q14 50 16 63q46 253 -43 477q9 3 19 4q30 7 60 -4q36 -46 63 -98
v-28q9 -16 6.5 -149t-14.5 -170q1 -12 4 -24q-7 -18 -25 -70.5t-19 -70.5q-10 -10 -19 -20q-2 -6 -59 -36q-12 -12 -20 -27q-51 -14 -103 -4q-23 14 -35 12q-28 17 -28 51z" />
    <glyph glyph-name="k" unicode="k" horiz-adv-x="540" 
d="M108 -36q-12 -3 -25 -4q-17 12 -37 20q-14 25 -26 160q13 476 22 491q-13 17 -12 37q8 5 12 13q-8 11 -8 24q6 9 12 17l-4 73l12 25q23 17 50 12l12 -8l29 -4q5 -16 4 -33q-7 -33 -29 -147q-6 -145 -20 -300q38 52 53 58q7 9 12 20q13 2 25 9q7 6 8 16q7 5 16 4
q60 69 148 49v-8v-20q-29 -17 -103 -77.5t-78 -78.5q-8 -12 -20 -20q-14 -28 -25 -58q23 -10 45 -24l89 -30l94 -28.5t51 -15.5q56 -6 106 -29q5 -7 4 -16q-13 -9 -28 -8q-50 -3 -101.5 1t-78.5 15q-15 12 -35 15.5t-113 25.5q-32 21 -70 29q-13 -16 -12 -37z" />
    <glyph glyph-name="l" unicode="l" horiz-adv-x="205" 
d="M40 70l-12 138q-22 84 -7 274.5t23 217.5q0 13 -4 24q6 19 20 33q-8 18 -8 37q20 1 21 20q-8 7 -17 13q6 23 13 45q29 -3 57 0l20 8q11 -8 13 -20q-9 -96 -13 -230q1 -39 -4 -78l-4 -61q-8 -9 -8 -45q-9 -18 0 -29l-8 -53q-1 -23 -2 -38t-6 -24v-81q3 -24 12 -46
q-5 -22 -4 -45q6 -11 16 -20v-41l4 -16q5 -29 4 -58q21 -13 21 -37l-21 -28l-36 8q-36 11 -37 49q10 1 8 12h-4v4q-13 -1 -12.5 14t-24.5 53z" />
    <glyph glyph-name="m" unicode="m" horiz-adv-x="746" 
d="M582 368q-10 6 -17 16v17h-8h-20q-3 -22 -25 -21q-14 -19 -29 -37l-16 -4l-12 -41q-26 -19 -37.5 -69.5t-11.5 -89.5q-19 -31 -58 -25q-5 10 -8 21l-33 4v8q-12 57 -16 115l4 45q-4 7 -12 12q3 43 -37 49l-8 -33q-13 -4 -21 -16q-12 -23 -20 -49q-7 -6 -13 -13
q-41 -99 -49 -122q-1 -59 -37 -99q-13 -6 -28 -4q-41 34 -58 82q-6 264 -4 295q10 11 25 8q13 9 24 -4q19 13 41 16v-4h4v-32q6 -10 9 -21q-14 -50 -9 -102h9q5 17 22.5 43.5t39.5 65t40 45t25 18.5q28 11 57 12q30 -3 42.5 -45t39.5 -98v16q58 87 91 99.5t52 39.5l37 8
q45 3 78 -28q7 -15 8 -33q13 -22 25 -45q-3 -14 -4 -29l20 -143q0 -31 14 -65l31 -78q-6 -7 -12 -13q-35 10 -66 0q-33 11 -69 328z" />
    <glyph glyph-name="n" unicode="n" horiz-adv-x="588" 
d="M263 376q9 14 24 20q20 3 37 16q72 12 89.5 -43t50.5 -137l8 -57q-7 -7 -4 -16l20 -25q1 -16 8 -29q14 -5 29 -4q19 -6 37 4v-24q-17 -22 -37 -41q-28 -5 -71 1.5t-48 55.5q-4 14 -12.5 66.5t-28.5 126.5l-20 12l-4 24h-21q-5 6 -12 5q-12 -10 -17 -25l-20 -8l-37 -58
q-22 -17 -26.5 -36.5t-21.5 -49.5t-24.5 -45.5t-13.5 -40.5l-37 -57l-37 -8q-17 23 -45 29q-1 21 -1.5 68.5t-6.5 295.5h8q1 11 -4 21q34 27 78 20q2 -7 8 -12q15 -38 4 -78q-17 -84 -4 -168h17q20 33 53 97t82 100z" />
    <glyph glyph-name="o" unicode="o" horiz-adv-x="449" 
d="M98 45q-54 40 -71 77t-22.5 61.5t7.5 93.5t26.5 87.5t30.5 39.5q1 11 8 20q11 1 21 8q4 6 8 13q23 12 49 20q69 10 111.5 -9.5t51.5 -31.5q8 -7 20 -8l45.5 -57t28.5 -49v-25q16 -29 12 -61l4 -45q-31 -85 -45 -98q-23 -38 -65 -53q1 -6 -4 -8h-29q-24 -17 -53 -24
q-63 6 -96.5 21.5t-37.5 27.5zM192 420q-8 -10 -17 -20q-50 -17 -70 -65t-19 -105.5t16.5 -89t48.5 -55.5q37 -39 94 -28q7 5 16 4q31 18 48.5 38.5t41 90t-40.5 153.5q-39 37 -49 53q-23 9 -41 24h-28z" />
    <glyph glyph-name="p" unicode="p" horiz-adv-x="381" 
d="M349 395q-3 -36 -21.5 -66.5t-34.5 -45t-46 -39.5q-35 -35 -102 -74h-29l-6 -30q37 -248 -14 -268q-34 13 -33 49q-36 132 -49 616q-3 44 13.5 64t19.5 46q14 11 29 21q26 -7 53 -8q16 -12 30.5 -27t38.5 -10q31 1 61 -4q78 -34 89 -107.5t1 -116.5zM280 400
q18 96 -13 141q-31 36 -77 45q-35 2 -50 -6q-24 -18 -20 -40q0 -49 -4 -152t0 -136q8 -5 17 -8q32 33 69 61q79 43 78 95z" />
    <glyph glyph-name="q" unicode="q" 
d="M261 673q13 -35 30.5 -110.5t3.5 -107t-26 -72.5q69 -31 217 20v-16q-6 -10 -29.5 -34.5t-60.5 -39.5t-65 -12q13 -41 28 -82q18 -139 28.5 -174.5t1 -71.5t-20.5 -61q-19 -16 -37 -33q-24 -11 -49 4q-15 16 -22 27q-45 139 -46 157q-20 156 -14 172q-20 33 -54.5 23.5
t-76.5 38.5t-45 77q-15 157 2 211.5t51 101t91 42.5t93 -60zM101 362q9 -15 25 -20q38 2 60.5 28t32.5 84t-15 199q-25 17 -42.5 14t-31.5 -22q-19 -16 -38.5 -92t9.5 -191zM355 14v15l-53 194q-8 52 -49 78q-3 -4 -8 -4v-21l-4 -115q4 -27 38 -153.5t76 6.5z" />
    <glyph glyph-name="r" unicode="r" 
d="M150 340l17 31q30 9 88.5 58t124.5 52q14 -13 33 -16q3 -21 8 -41q-20 6 -41 8q-24 -11 -74.5 -41t-135.5 -131q-19 -29 -30 -120q-5 -84 -5 -134h-9q-13 -6 -28 -4q-12 5 -25 8q-51 36 -53 99q24 16 16 45q19 32 24 146q7 216 -3 247q16 8 33 8l28 -20q31 -81 32 -195z
" />
    <glyph glyph-name="s" unicode="s" horiz-adv-x="420" 
d="M336 250q13 1 25 -4q14 -21 30.5 -50t5 -118.5t-47.5 -118t-50 -61.5q-18 -13 -41 -13q1 -9 -4 -16q-26 -17 -107 0q-29 10 -29 40q14 9 21 25l24 4q88 33 113 77t37 95.5t-30 106.5q-33 10 -119 29q-20 13 -85 29.5t-65 107.5t35 138.5t65 64.5t71.5 26t83.5 8t71 -34
v-17q-17 -5 -36 -4q-44 7 -99 -10.5t-83 -74t-3 -119.5q29 -52 101 -65.5t116 -33.5v-12z" />
    <glyph glyph-name="t" unicode="t" horiz-adv-x="564" 
d="M239 235l21 -147q14 -27 41 -41q63 0 110 41q17 4 33 12q13 14 17 33q31 13 65 20q12 -17 17 -36q-39 -65 -103 -99q2 -7 0 -12q-21 -19 -44.5 -27t-88.5 -10t-86 12t-38 98.5t-21 106.5l-21 107q-22 5 -45 4l-8 8q-15 -14 -33 -12q-5 2 -4 8l-49 4q-5 16 -4 33h4v4
q36 1 70 12q71 -3 68 6q-2 36 -2.5 63t-1.5 54q52 8 75 8q22 -5 41 -16q17 -33 1 -41t-13 -68l36 15q39 21 99.5 21t85.5 -21q8 -11 8 -25q-9 -8 -21 -12q-28 11 -172 -21q-1 -12 -46 -17z" />
    <glyph glyph-name="u" unicode="u" horiz-adv-x="611" 
d="M104 300q-2 -26 -4 -45q5 -18 4 -37q-2 -84 8 -81q1 -21 10 -35t31 -22q16 28 30.5 38.5t27.5 33t26 103.5t10 151q12 28 41 29q23 12 49 12l24 -29q-15 -113 -1 -188q28 -77 78 -104.5t127 35.5q5 3 8 -4q24 -1 21 -24q-24 -24 -51 -54.5t-60.5 -33t-75 13t-67.5 41
t-33 39.5t-27 31q-8 -67 -16.5 -87.5t-22.5 -40.5t-59 -28q-34 -12 -77.5 -7.5t-57.5 28.5q-38 248 -23.5 332.5t48.5 91.5q28 -3 40.5 -19.5t3.5 -45.5t-14.5 -52.5t2.5 -41.5z" />
    <glyph glyph-name="v" unicode="v" horiz-adv-x="470" 
d="M338 379q-1 17 4 33l12 4q7 6 16 4q-5 14 -4 28q28 16 61 17q16 -11 21 -29q6 -5 4 -12l-21 -16v-21q-7 -5 -23 -30.5t-30 -38.5v-21q-17 -27 -36 -53q-38 -75 -82 -146q-23 -56 -65 -98q-14 -5 -29 -4q-50 28 -53 81q-30 31 -36.5 58t-35.5 79.5t-30 82.5q-10 43 4 86
q23 19 53 16q6 -4 13 -8q16 -39 69 -212q5 0 8 -4l12 -41h8v4q19 23 74 119.5t73 117.5q5 6 13 4z" />
    <glyph glyph-name="w" unicode="w" horiz-adv-x="605" 
d="M500 270l14 59q24 18 53 20v-4h4q13 -30 8 -61q-29 -46 -32 -69q-16 -23 -66 -115q-52 -86 -89 -114h-41q-5 1 -8 4q-6 17 -21 29q-5 7 -4 16q-12 10 -28.5 51.5t-21 71.5t-31.5 25v-4q-6 -55 -22 -115.5t-56 -69.5q-24 9 -49 17v4q-17 13 -38 70l-60 166q-6 11 -12 78
q3 4 8 4q32 10 65 12q13 -13 9 -32q13 -30 28 -107v-20q11 -32 16 -65q10 -3 21 -4l12 16q10 27 49 122l8 70q-14 5 -16 20q3 3 4 8q45 21 94 17q14 -80 61 -249q9 -19 12 -41q6 -2 8 4q13 24 121 186zM265 166h4v8z" />
    <glyph glyph-name="x" unicode="x" horiz-adv-x="438" 
d="M424 49l-34 -9q-35 24 -63.5 53l-106.5 107q-11 -5 -24 -4v-4q19 -26 -8 -49q2 -16 -41 -98v-24q-7 -8 -13 -16v-21q-14 -17 -24 -37q-3 -59 -53 -81q-22 16 -49 24q9 47 34 113.5t70 151.5t58 115q-28 28 -48 61h-16q-33 39 -57 82q-2 20 8 36q23 14 49 21
q41 -50 90 -94l14 -36l64 89.5t40 40.5q2 7 8 12q16 -5 33 -4q19 -21 16 -49q-48 -38 -73 -94q-9 -25 -25 -45q12 -34 45 -72t41 -50v-12l41 -58q8 -7 20 -8q5 -20 4 -41z" />
    <glyph glyph-name="y" unicode="y" horiz-adv-x="422" 
d="M194 302l36 -42q12 33 84 162v4q3 4 4 9l-12 20q3 3 4 8q43 9 86 12l-4 -16q8 -11 12 -24q-4 -10 -16 -13q-2 -10 -5 -20q-76 -198 -85 -208q-30 -44 -66 -156.5t-44 -116.5q-7 -19 -8 -42.5t-29 -59.5h-4v-5q-17 1 -33 -4q-12 21 -16 45q17 16 8 41q7 5 16 4
q-6 12 -4 25q88 237 94 265q-22 14 -37 41q-32 28 -96.5 107.5t-78.5 124.5l4 4q35 18 74 21l16 -21q5 -16 8 -32q4 -3 8 -5l4 -28z" />
    <glyph glyph-name="z" unicode="z" horiz-adv-x="600" 
d="M306 444l12 2v9q-13 14 -20.5 33t-32.5 16q-41 -28 -83 -42.5t-60 -27.5l-69 -8q-11 12 -25 20q-8 -7 -16 0q-5 8 -4 17q15 8 28 20h25l20 8q16 5 33 4q7 10 39.5 24.5t58 22t143.5 31.5q1 -5 4 -8q10 -4 20 -4q-4 -27 16 -45q-11 -74 -76 -157q-28 -35 -40 -89
q-20 -56 -83 -154q-20 -38 -36 -61q24 -1 44 -4l183 20q107 7 131 12q31 -3 61 0q8 -22 8 -45q-26 -26 -61 -36q-62 6 -126 -4q-25 8 -45 -9q-21 -1 -41 5q-39 -3 -180 -17q-16 12 -28 29q-14 7 -32 3.5t-17 20.5q18 11 37 21q80 131 106 182.5t32 61.5q35 55 74 149z" />
    <glyph glyph-name="braceleft" unicode="{" 
d="M188 428q-3 119 -37 234q-6 35 -9.5 93.5t24.5 91.5t79 33q73 -10 115 -40l10 -30q-104 23 -128 -29.5t-16 -133.5q11 -131 38 -249q5 -17 3 -34q2 -40 -3 -79q-10 -34 -19 -68q-2 -28 -16.5 -65.5t42.5 -182.5q41 -54 69 -65t90 -24q-60 -21 -104.5 -12.5t-76.5 26
t-53 67.5q-7 16 -8 34q-20 48 -34 98q9 42 -11 75q-21 11 -45 16q-63 34 -87 101q-16 48 1 84t25.5 47.5t48.5 25t102 -13.5zM132 394q-51 -7 -72.5 -35t4 -76t56.5 -51q12 3 23 8q15 36 21 77t-17 74q-7 5 -15 3z" />
    <glyph glyph-name="bar" unicode="|" 
d="M185 880h20q14 -17 37 -24q9 -12 16 -25q-9 -57 -12 -114q11 -67 4 -135q-13 -87 -16.5 -252.5t-3.5 -273.5q7 -18 12 -37q-1 -23 -8 -45q5 -53 4 -106q-13 -14 -33 -12q-12 3 -24 0q-11 21 -8 45q-24 79 -21 469q11 325 17 420v61q9 14 16 29z" />
    <glyph glyph-name="braceright" unicode="}" 
d="M79 880q68 -2 98 -64l45 -45q7 -23 15 -45v-27q4 -4 8 -7q0 -10 -4 -19v-75q-7 -23 -15 -46v-90q5 -16 15 -30q-2 -19 7 -34q7 -6 16 -4q9 44 48 68q13 -3 27 -4q77 -16 97.5 -83t-10.5 -112.5t-68 -56.5h-38q-11 -10 -8 -26q-11 -27 4 -53q-5 -15 -11 -60
q-3 -56 -29 -79.5t-35.5 -31t-25.5 -28.5t-47 -31.5t-48 -21.5q-58 -19 -86 -4q-19 13 -34 11v15q13 10 37.5 9.5t75.5 26.5t94 126q34 80 11 166q-2 41 -3 83q-80 149 -61 293q8 43 4 87q2 14 8 26q-5 5 -12 4q-4 17 -3 34q-9 19 -19 38v11q-41 31 -53 79zM316 274h23
q24 30 26 68q-7 13 -11 26h-11q-24 -44 -27 -94z" />
    <glyph glyph-name="asciitilde" unicode="~" 
d="M131 840q32 -12 61 -26l10 -10q7 -5 16 -7q1 -5 5 -10q8 -4 16 -9v-4q22 -28 54 -43q22 -3 44 0q8 9 19 14l12 14q4 4 9 3q8 12 15.5 25t24.5 12l14 -14l8 -30q-11 -11 -20 -24q-4 -2 -9 -4v-10q-12 -6 -23 -16q-6 -9 -14 -14q-17 -7 -36 -12q-19 -2 -37 7q-9 0 -19 2
q-6 5 -9 12q-8 2 -16 5q-2 5 -5 10q-16 11 -28 27q-5 7 -7 14q-35 26 -78 31q-24 0 -36.5 -29t-18.5 -36.5t-17 -6.5q-5 5 -10 11v16q-6 9 -6 19q9 11 16 24v14q17 16 37 28h10q3 7 7 14q6 1 11 3z" />
    <glyph glyph-name="nonbreakingspace" unicode="&#xa0;" horiz-adv-x="1024" 
d="M342 20l-109 79l-4 10h-6v7l-28 17q-84 79 -63 235t121 231q55 55 120 72t110 27h34l4 4h58q82 -2 184.5 -98.5t99.5 -254t-113 -277.5q-106 -133 -408 -52zM671 55q79 44 120 123q31 72 45 154v69q-14 92 -76 167l-116 83l-48 17h-58l-11 3q-75 -14 -147 -41l-17 3
l-79 -51q-92 -89 -116 -205v-93q3 -89 75 -147q158 -142 428 -82zM534 133q-68 7 -123 55q-31 34 -41 79v41l3 7l21 3l7 -7v-37q13 -38 44 -72q45 -34 100 -38l54 14q55 51 59 120l-7 48l3 7l24 3l10 -21v-58q-6 -65 -61 -113q-41 -31 -93 -31zM360 421l-14 7q-24 1 -27 27
t47 31l21 -20v-24l-14 -17zM616 448l-20 18q-11 33 22 41.5t32 -37.5q-10 -25 -34 -22zM147 640l-79 35l-3 17l24 10l75 -34l4 -21zM195 678l-20 20l-17 55l24 7l20 -51h7l10 -24zM264 705l-14 17q27 45 41 93l21 3l3 -27l-31 -79z" />
    <glyph glyph-name="exclamdown" unicode="&#xa1;" 
 />
    <glyph glyph-name="cent" unicode="&#xa2;" 
 />
    <glyph glyph-name="sterling" unicode="&#xa3;" 
 />
    <glyph glyph-name="currency" unicode="&#xa4;" 
 />
    <glyph glyph-name="yen" unicode="&#xa5;" 
 />
    <glyph glyph-name="brokenbar" unicode="&#xa6;" 
 />
    <glyph glyph-name="section" unicode="&#xa7;" 
 />
    <glyph glyph-name="dieresis" unicode="&#xa8;" 
 />
    <glyph glyph-name="copyright" unicode="&#xa9;" 
 />
    <glyph glyph-name="ordfeminine" unicode="&#xaa;" 
 />
    <glyph glyph-name="guillemotleft" unicode="&#xab;" 
 />
    <glyph glyph-name="logicalnot" unicode="&#xac;" 
 />
    <glyph glyph-name="uni00AD" unicode="&#xad;" 
 />
    <glyph glyph-name="registered" unicode="&#xae;" 
 />
    <glyph glyph-name="macron" unicode="&#xaf;" 
 />
    <glyph glyph-name="degree" unicode="&#xb0;" 
 />
    <glyph glyph-name="plusminus" unicode="&#xb1;" 
 />
    <glyph glyph-name="twosuperior" unicode="&#xb2;" 
 />
    <glyph glyph-name="threesuperior" unicode="&#xb3;" 
 />
    <glyph glyph-name="acute" unicode="&#xb4;" 
 />
    <glyph glyph-name="mu" unicode="&#xb5;" 
 />
    <glyph glyph-name="paragraph" unicode="&#xb6;" 
 />
    <glyph glyph-name="periodcentered" unicode="&#xb7;" 
 />
    <glyph glyph-name="cedilla" unicode="&#xb8;" 
 />
    <glyph glyph-name="onesuperior" unicode="&#xb9;" 
 />
    <glyph glyph-name="ordmasculine" unicode="&#xba;" 
 />
    <glyph glyph-name="guillemotright" unicode="&#xbb;" 
 />
    <glyph glyph-name="onequarter" unicode="&#xbc;" 
 />
    <glyph glyph-name="onehalf" unicode="&#xbd;" 
 />
    <glyph glyph-name="threequarters" unicode="&#xbe;" 
 />
    <glyph glyph-name="questiondown" unicode="&#xbf;" 
 />
    <glyph glyph-name="Agrave" unicode="&#xc0;" 
 />
    <glyph glyph-name="Aacute" unicode="&#xc1;" 
 />
    <glyph glyph-name="Acircumflex" unicode="&#xc2;" 
 />
    <glyph glyph-name="Atilde" unicode="&#xc3;" 
 />
    <glyph glyph-name="Adieresis" unicode="&#xc4;" 
 />
    <glyph glyph-name="Aring" unicode="&#xc5;" 
 />
    <glyph glyph-name="AE" unicode="&#xc6;" 
 />
    <glyph glyph-name="Ccedilla" unicode="&#xc7;" 
 />
    <glyph glyph-name="Egrave" unicode="&#xc8;" 
 />
    <glyph glyph-name="Eacute" unicode="&#xc9;" 
 />
    <glyph glyph-name="Ecircumflex" unicode="&#xca;" 
 />
    <glyph glyph-name="Edieresis" unicode="&#xcb;" 
 />
    <glyph glyph-name="Igrave" unicode="&#xcc;" 
 />
    <glyph glyph-name="Iacute" unicode="&#xcd;" 
 />
    <glyph glyph-name="Icircumflex" unicode="&#xce;" 
 />
    <glyph glyph-name="Idieresis" unicode="&#xcf;" 
 />
    <glyph glyph-name="Eth" unicode="&#xd0;" 
 />
    <glyph glyph-name="Ntilde" unicode="&#xd1;" 
 />
    <glyph glyph-name="Ograve" unicode="&#xd2;" 
 />
    <glyph glyph-name="Oacute" unicode="&#xd3;" 
 />
    <glyph glyph-name="Ocircumflex" unicode="&#xd4;" 
 />
    <glyph glyph-name="Otilde" unicode="&#xd5;" 
 />
    <glyph glyph-name="Odieresis" unicode="&#xd6;" 
 />
    <glyph glyph-name="multiply" unicode="&#xd7;" 
 />
    <glyph glyph-name="Oslash" unicode="&#xd8;" 
 />
    <glyph glyph-name="Ugrave" unicode="&#xd9;" 
 />
    <glyph glyph-name="Uacute" unicode="&#xda;" 
 />
    <glyph glyph-name="Ucircumflex" unicode="&#xdb;" 
 />
    <glyph glyph-name="Udieresis" unicode="&#xdc;" 
 />
    <glyph glyph-name="Yacute" unicode="&#xdd;" 
 />
    <glyph glyph-name="Thorn" unicode="&#xde;" 
 />
    <glyph glyph-name="germandbls" unicode="&#xdf;" 
 />
    <glyph glyph-name="agrave" unicode="&#xe0;" 
 />
    <glyph glyph-name="aacute" unicode="&#xe1;" 
 />
    <glyph glyph-name="acircumflex" unicode="&#xe2;" 
 />
    <glyph glyph-name="atilde" unicode="&#xe3;" 
 />
    <glyph glyph-name="adieresis" unicode="&#xe4;" 
 />
    <glyph glyph-name="aring" unicode="&#xe5;" 
 />
    <glyph glyph-name="ae" unicode="&#xe6;" 
 />
    <glyph glyph-name="ccedilla" unicode="&#xe7;" 
 />
    <glyph glyph-name="egrave" unicode="&#xe8;" 
 />
    <glyph glyph-name="eacute" unicode="&#xe9;" 
 />
    <glyph glyph-name="ecircumflex" unicode="&#xea;" 
 />
    <glyph glyph-name="edieresis" unicode="&#xeb;" 
 />
    <glyph glyph-name="igrave" unicode="&#xec;" 
 />
    <glyph glyph-name="iacute" unicode="&#xed;" 
 />
    <glyph glyph-name="icircumflex" unicode="&#xee;" 
 />
    <glyph glyph-name="idieresis" unicode="&#xef;" 
 />
    <glyph glyph-name="eth" unicode="&#xf0;" 
 />
    <glyph glyph-name="ntilde" unicode="&#xf1;" 
 />
    <glyph glyph-name="ograve" unicode="&#xf2;" 
 />
    <glyph glyph-name="oacute" unicode="&#xf3;" 
 />
    <glyph glyph-name="ocircumflex" unicode="&#xf4;" 
 />
    <glyph glyph-name="otilde" unicode="&#xf5;" 
 />
    <glyph glyph-name="odieresis" unicode="&#xf6;" 
 />
    <glyph glyph-name="divide" unicode="&#xf7;" 
 />
    <glyph glyph-name="oslash" unicode="&#xf8;" 
 />
    <glyph glyph-name="ugrave" unicode="&#xf9;" 
 />
    <glyph glyph-name="uacute" unicode="&#xfa;" 
 />
    <glyph glyph-name="ucircumflex" unicode="&#xfb;" 
 />
    <glyph glyph-name="udieresis" unicode="&#xfc;" 
 />
    <glyph glyph-name="yacute" unicode="&#xfd;" 
 />
    <glyph glyph-name="thorn" unicode="&#xfe;" 
 />
    <glyph glyph-name="ydieresis" unicode="&#xff;" 
 />
    <glyph glyph-name="OE" unicode="&#x152;" 
 />
    <glyph glyph-name="oe" unicode="&#x153;" 
 />
    <glyph glyph-name="Scaron" unicode="&#x160;" 
 />
    <glyph glyph-name="scaron" unicode="&#x161;" 
 />
    <glyph glyph-name="Ydieresis" unicode="&#x178;" 
 />
    <glyph glyph-name="Zcaron" unicode="&#x17d;" 
 />
    <glyph glyph-name="zcaron" unicode="&#x17e;" 
 />
    <glyph glyph-name="florin" unicode="&#x192;" 
 />
    <glyph glyph-name="circumflex" unicode="&#x2c6;" 
 />
    <glyph glyph-name="tilde" unicode="&#x2dc;" 
 />
    <glyph glyph-name="endash" unicode="&#x2013;" 
 />
    <glyph glyph-name="emdash" unicode="&#x2014;" 
 />
    <glyph glyph-name="quoteleft" unicode="&#x2018;" 
 />
    <glyph glyph-name="quoteright" unicode="&#x2019;" 
 />
    <glyph glyph-name="quotesinglbase" unicode="&#x201a;" 
 />
    <glyph glyph-name="quotedblleft" unicode="&#x201c;" 
 />
    <glyph glyph-name="quotedblright" unicode="&#x201d;" 
 />
    <glyph glyph-name="quotedblbase" unicode="&#x201e;" 
 />
    <glyph glyph-name="dagger" unicode="&#x2020;" 
 />
    <glyph glyph-name="daggerdbl" unicode="&#x2021;" 
 />
    <glyph glyph-name="bullet" unicode="&#x2022;" 
 />
    <glyph glyph-name="ellipsis" unicode="&#x2026;" 
 />
    <glyph glyph-name="perthousand" unicode="&#x2030;" 
 />
    <glyph glyph-name="guilsinglleft" unicode="&#x2039;" 
 />
    <glyph glyph-name="guilsinglright" unicode="&#x203a;" 
 />
    <glyph glyph-name="Euro" unicode="&#x20ac;" 
 />
    <glyph glyph-name="trademark" unicode="&#x2122;" 
 />
    <glyph glyph-name="uni2219" unicode="&#x2219;" 
 />
  </font>
</defs>
</svg>
